<?xml version="1.0" encoding="UTF-8" standalone="yes"?><svg xmlns="http://www.w3.org/2000/svg" xmlns:xlink="http://www.w3.org/1999/xlink" height="1812pt" style="width:2036px;height:1812px;" version="1.1" viewBox="0 0 2036 1812" width="2036pt"><defs><filter height="300%" id="f1" width="300%" x="-1" y="-1"><feGaussianBlur result="blurOut" stdDeviation="2.0"/><feColorMatrix in="blurOut" result="blurOut2" type="matrix" values="0 0 0 0 0 0 0 0 0 0 0 0 0 0 0 0 0 0 .4 0"/><feOffset dx="4.0" dy="4.0" in="blurOut2" result="blurOut3"/><feBlend in="SourceGraphic" in2="blurOut3" mode="normal"/></filter></defs><g><polygon fill="#FFFFFF" filter="url(#f1)" points="963,178,1064,178,1071,201.6094,2029,201.6094,2029,276,963,276,963,178" style="stroke: #000000; stroke-width: 2.0;"/><line style="stroke: #000000; stroke-width: 2.0;" x1="963" x2="1071" y1="201.6094" y2="201.6094"/><text fill="#000000" font-family="sans-serif" font-size="14" font-weight="bold" lengthAdjust="spacingAndGlyphs" textLength="95" x="966" y="195.5332">PAC.Windows</text><polygon fill="#FFFFFF" filter="url(#f1)" points="14,906,83,906,90,929.6094,1158,929.6094,1158,1805,14,1805,14,906" style="stroke: #000000; stroke-width: 2.0;"/><line style="stroke: #000000; stroke-width: 2.0;" x1="14" x2="90" y1="929.6094" y2="929.6094"/><text fill="#000000" font-family="sans-serif" font-size="14" font-weight="bold" lengthAdjust="spacingAndGlyphs" textLength="63" x="17" y="923.5332">PAC.Data</text><polygon fill="#FFFFFF" filter="url(#f1)" points="913,362,1050,362,1057,385.6094,1929,385.6094,1929,800,913,800,913,362" style="stroke: #000000; stroke-width: 2.0;"/><line style="stroke: #000000; stroke-width: 2.0;" x1="913" x2="1057" y1="385.6094" y2="385.6094"/><text fill="#000000" font-family="sans-serif" font-size="14" font-weight="bold" lengthAdjust="spacingAndGlyphs" textLength="131" x="916" y="379.5332">PAC.DesktopClient</text><polygon fill="#FFFFFF" filter="url(#f1)" points="948,390,1039,390,1046,413.6094,1921,413.6094,1921,792,948,792,948,390" style="stroke: #000000; stroke-width: 2.0;"/><line style="stroke: #000000; stroke-width: 2.0;" x1="948" x2="1046" y1="413.6094" y2="413.6094"/><text fill="#000000" font-family="sans-serif" font-size="14" font-weight="bold" lengthAdjust="spacingAndGlyphs" textLength="85" x="951" y="407.5332">ViewModels</text><rect fill="#FEFECE" filter="url(#f1)" height="61.8359" style="stroke: #A80036; stroke-width: 1.5;" width="152" x="1505" y="206"/><ellipse cx="1547.45" cy="222" fill="#ADD1B2" rx="11" ry="11" style="stroke: #A80036; stroke-width: 1.0;"/><path d="M1550.2156,217.875 Q1550.3719,217.6563 1550.5594,217.5469 Q1550.7469,217.4375 1550.9656,217.4375 Q1551.3406,217.4375 1551.575,217.6953 Q1551.8094,217.9531 1551.8094,218.5625 L1551.8094,220.0156 Q1551.8094,220.625 1551.575,220.8906 Q1551.3406,221.1563 1550.9656,221.1563 Q1550.6219,221.1563 1550.4188,220.9531 Q1550.2156,220.7656 1550.1063,220.25 Q1550.0594,219.8906 1549.8719,219.7031 Q1549.5438,219.3281 1548.9344,219.1094 Q1548.325,218.8906 1547.7,218.8906 Q1546.9344,218.8906 1546.3016,219.2188 Q1545.6688,219.5469 1545.1766,220.2969 Q1544.6844,221.0469 1544.6844,222.0781 L1544.6844,223.1719 Q1544.6844,224.4063 1545.575,225.2266 Q1546.4656,226.0469 1548.0594,226.0469 Q1548.9969,226.0469 1549.6531,225.7969 Q1550.0438,225.6406 1550.4656,225.2031 Q1550.7313,224.9375 1550.8797,224.8594 Q1551.0281,224.7813 1551.2313,224.7813 Q1551.5594,224.7813 1551.8172,225.0391 Q1552.075,225.2969 1552.075,225.6406 Q1552.075,225.9844 1551.7313,226.3906 Q1551.2313,226.9688 1550.4344,227.2969 Q1549.3563,227.75 1548.0594,227.75 Q1546.5438,227.75 1545.3406,227.125 Q1544.3563,226.625 1543.6688,225.5547 Q1542.9813,224.4844 1542.9813,223.2031 L1542.9813,222.0469 Q1542.9813,220.7188 1543.5984,219.5703 Q1544.2156,218.4219 1545.3094,217.8047 Q1546.4031,217.1875 1547.6375,217.1875 Q1548.3719,217.1875 1549.0203,217.3516 Q1549.6688,217.5156 1550.2156,217.875 Z "/><text fill="#000000" font-family="sans-serif" font-size="12" lengthAdjust="spacingAndGlyphs" textLength="59" x="1567.55" y="226.9102">ViewModel</text><line style="stroke: #A80036; stroke-width: 1.5;" x1="1506" x2="1656" y1="238" y2="238"/><line style="stroke: #A80036; stroke-width: 1.5;" x1="1506" x2="1656" y1="246" y2="246"/><polygon fill="#FFFF44" points="1516,253.418,1520,257.418,1516,261.418,1512,257.418" style="stroke: #B38D22; stroke-width: 1.0;"/><text fill="#000000" font-family="sans-serif" font-size="11" lengthAdjust="spacingAndGlyphs" textLength="126" x="1525" y="261.4189">OnValidate(string) : virtual</text><rect fill="#FEFECE" filter="url(#f1)" height="48" style="stroke: #A80036; stroke-width: 1.5;" width="124" x="1346" y="213"/><ellipse cx="1361" cy="229" fill="#ADD1B2" rx="11" ry="11" style="stroke: #A80036; stroke-width: 1.0;"/><path d="M1363.7656,224.875 Q1363.9219,224.6563 1364.1094,224.5469 Q1364.2969,224.4375 1364.5156,224.4375 Q1364.8906,224.4375 1365.125,224.6953 Q1365.3594,224.9531 1365.3594,225.5625 L1365.3594,227.0156 Q1365.3594,227.625 1365.125,227.8906 Q1364.8906,228.1563 1364.5156,228.1563 Q1364.1719,228.1563 1363.9688,227.9531 Q1363.7656,227.7656 1363.6563,227.25 Q1363.6094,226.8906 1363.4219,226.7031 Q1363.0938,226.3281 1362.4844,226.1094 Q1361.875,225.8906 1361.25,225.8906 Q1360.4844,225.8906 1359.8516,226.2188 Q1359.2188,226.5469 1358.7266,227.2969 Q1358.2344,228.0469 1358.2344,229.0781 L1358.2344,230.1719 Q1358.2344,231.4063 1359.125,232.2266 Q1360.0156,233.0469 1361.6094,233.0469 Q1362.5469,233.0469 1363.2031,232.7969 Q1363.5938,232.6406 1364.0156,232.2031 Q1364.2813,231.9375 1364.4297,231.8594 Q1364.5781,231.7813 1364.7813,231.7813 Q1365.1094,231.7813 1365.3672,232.0391 Q1365.625,232.2969 1365.625,232.6406 Q1365.625,232.9844 1365.2813,233.3906 Q1364.7813,233.9688 1363.9844,234.2969 Q1362.9063,234.75 1361.6094,234.75 Q1360.0938,234.75 1358.8906,234.125 Q1357.9063,233.625 1357.2188,232.5547 Q1356.5313,231.4844 1356.5313,230.2031 L1356.5313,229.0469 Q1356.5313,227.7188 1357.1484,226.5703 Q1357.7656,225.4219 1358.8594,224.8047 Q1359.9531,224.1875 1361.1875,224.1875 Q1361.9219,224.1875 1362.5703,224.3516 Q1363.2188,224.5156 1363.7656,224.875 Z "/><text fill="#000000" font-family="sans-serif" font-size="12" lengthAdjust="spacingAndGlyphs" textLength="92" x="1375" y="233.9102">ActionCommand</text><line style="stroke: #A80036; stroke-width: 1.5;" x1="1347" x2="1469" y1="245" y2="245"/><line style="stroke: #A80036; stroke-width: 1.5;" x1="1347" x2="1469" y1="253" y2="253"/><rect fill="#FEFECE" filter="url(#f1)" height="48" style="stroke: #A80036; stroke-width: 1.5;" width="145" x="1006.5" y="213"/><ellipse cx="1021.5" cy="229" fill="#ADD1B2" rx="11" ry="11" style="stroke: #A80036; stroke-width: 1.0;"/><path d="M1024.2656,224.875 Q1024.4219,224.6563 1024.6094,224.5469 Q1024.7969,224.4375 1025.0156,224.4375 Q1025.3906,224.4375 1025.625,224.6953 Q1025.8594,224.9531 1025.8594,225.5625 L1025.8594,227.0156 Q1025.8594,227.625 1025.625,227.8906 Q1025.3906,228.1563 1025.0156,228.1563 Q1024.6719,228.1563 1024.4688,227.9531 Q1024.2656,227.7656 1024.1563,227.25 Q1024.1094,226.8906 1023.9219,226.7031 Q1023.5938,226.3281 1022.9844,226.1094 Q1022.375,225.8906 1021.75,225.8906 Q1020.9844,225.8906 1020.3516,226.2188 Q1019.7188,226.5469 1019.2266,227.2969 Q1018.7344,228.0469 1018.7344,229.0781 L1018.7344,230.1719 Q1018.7344,231.4063 1019.625,232.2266 Q1020.5156,233.0469 1022.1094,233.0469 Q1023.0469,233.0469 1023.7031,232.7969 Q1024.0938,232.6406 1024.5156,232.2031 Q1024.7813,231.9375 1024.9297,231.8594 Q1025.0781,231.7813 1025.2813,231.7813 Q1025.6094,231.7813 1025.8672,232.0391 Q1026.125,232.2969 1026.125,232.6406 Q1026.125,232.9844 1025.7813,233.3906 Q1025.2813,233.9688 1024.4844,234.2969 Q1023.4063,234.75 1022.1094,234.75 Q1020.5938,234.75 1019.3906,234.125 Q1018.4063,233.625 1017.7188,232.5547 Q1017.0313,231.4844 1017.0313,230.2031 L1017.0313,229.0469 Q1017.0313,227.7188 1017.6484,226.5703 Q1018.2656,225.4219 1019.3594,224.8047 Q1020.4531,224.1875 1021.6875,224.1875 Q1022.4219,224.1875 1023.0703,224.3516 Q1023.7188,224.5156 1024.2656,224.875 Z "/><text fill="#000000" font-family="sans-serif" font-size="12" lengthAdjust="spacingAndGlyphs" textLength="113" x="1035.5" y="233.9102">ActionCommand&lt;T&gt;</text><line style="stroke: #A80036; stroke-width: 1.5;" x1="1007.5" x2="1150.5" y1="245" y2="245"/><line style="stroke: #A80036; stroke-width: 1.5;" x1="1007.5" x2="1150.5" y1="253" y2="253"/><rect fill="#FEFECE" filter="url(#f1)" height="61.8359" style="stroke: #A80036; stroke-width: 1.5;" width="124" x="1187" y="206"/><ellipse cx="1202" cy="222" fill="#B4A7E5" rx="11" ry="11" style="stroke: #A80036; stroke-width: 1.0;"/><path d="M1202.9531,218.6406 L1202.9531,225.2969 L1204.6719,225.2969 Q1205.2813,225.2969 1205.5469,225.5313 Q1205.8125,225.7656 1205.8125,226.1563 Q1205.8125,226.5313 1205.5469,226.7656 Q1205.2813,227 1204.6719,227 L1199.5313,227 Q1198.9219,227 1198.6563,226.7656 Q1198.3906,226.5313 1198.3906,226.1406 Q1198.3906,225.7656 1198.6563,225.5313 Q1198.9219,225.2969 1199.5313,225.2969 L1201.25,225.2969 L1201.25,218.6406 L1199.5313,218.6406 Q1198.9219,218.6406 1198.6563,218.4063 Q1198.3906,218.1719 1198.3906,217.7813 Q1198.3906,217.4063 1198.6563,217.1719 Q1198.9219,216.9375 1199.5313,216.9375 L1204.6719,216.9375 Q1205.2813,216.9375 1205.5469,217.1719 Q1205.8125,217.4063 1205.8125,217.7813 Q1205.8125,218.1719 1205.5469,218.4063 Q1205.2813,218.6406 1204.6719,218.6406 L1202.9531,218.6406 Z "/><text fill="#000000" font-family="sans-serif" font-size="12" font-style="italic" lengthAdjust="spacingAndGlyphs" textLength="92" x="1216" y="226.9102">IPageViewModel</text><line style="stroke: #A80036; stroke-width: 1.5;" x1="1188" x2="1310" y1="238" y2="238"/><ellipse cx="1198" cy="250.418" fill="none" rx="3" ry="3" style="stroke: #038048; stroke-width: 1.0;"/><text fill="#000000" font-family="sans-serif" font-size="11" lengthAdjust="spacingAndGlyphs" textLength="63" x="1207" y="253.4189">Name : string</text><line style="stroke: #A80036; stroke-width: 1.5;" x1="1188" x2="1310" y1="259.8359" y2="259.8359"/><rect fill="#FEFECE" filter="url(#f1)" height="61.8359" style="stroke: #A80036; stroke-width: 1.5;" width="164" x="1857" y="206"/><ellipse cx="1872" cy="222" fill="#ADD1B2" rx="11" ry="11" style="stroke: #A80036; stroke-width: 1.0;"/><path d="M1874.7656,217.875 Q1874.9219,217.6563 1875.1094,217.5469 Q1875.2969,217.4375 1875.5156,217.4375 Q1875.8906,217.4375 1876.125,217.6953 Q1876.3594,217.9531 1876.3594,218.5625 L1876.3594,220.0156 Q1876.3594,220.625 1876.125,220.8906 Q1875.8906,221.1563 1875.5156,221.1563 Q1875.1719,221.1563 1874.9688,220.9531 Q1874.7656,220.7656 1874.6563,220.25 Q1874.6094,219.8906 1874.4219,219.7031 Q1874.0938,219.3281 1873.4844,219.1094 Q1872.875,218.8906 1872.25,218.8906 Q1871.4844,218.8906 1870.8516,219.2188 Q1870.2188,219.5469 1869.7266,220.2969 Q1869.2344,221.0469 1869.2344,222.0781 L1869.2344,223.1719 Q1869.2344,224.4063 1870.125,225.2266 Q1871.0156,226.0469 1872.6094,226.0469 Q1873.5469,226.0469 1874.2031,225.7969 Q1874.5938,225.6406 1875.0156,225.2031 Q1875.2813,224.9375 1875.4297,224.8594 Q1875.5781,224.7813 1875.7813,224.7813 Q1876.1094,224.7813 1876.3672,225.0391 Q1876.625,225.2969 1876.625,225.6406 Q1876.625,225.9844 1876.2813,226.3906 Q1875.7813,226.9688 1874.9844,227.2969 Q1873.9063,227.75 1872.6094,227.75 Q1871.0938,227.75 1869.8906,227.125 Q1868.9063,226.625 1868.2188,225.5547 Q1867.5313,224.4844 1867.5313,223.2031 L1867.5313,222.0469 Q1867.5313,220.7188 1868.1484,219.5703 Q1868.7656,218.4219 1869.8594,217.8047 Q1870.9531,217.1875 1872.1875,217.1875 Q1872.9219,217.1875 1873.5703,217.3516 Q1874.2188,217.5156 1874.7656,217.875 Z "/><text fill="#000000" font-family="sans-serif" font-size="12" lengthAdjust="spacingAndGlyphs" textLength="132" x="1886" y="226.9102">MyObservableCollection</text><line style="stroke: #A80036; stroke-width: 1.5;" x1="1858" x2="2020" y1="238" y2="238"/><line style="stroke: #A80036; stroke-width: 1.5;" x1="1858" x2="2020" y1="246" y2="246"/><ellipse cx="1868" cy="258.418" fill="#84BE84" rx="3" ry="3" style="stroke: #038048; stroke-width: 1.0;"/><text fill="#000000" font-family="sans-serif" font-size="11" lengthAdjust="spacingAndGlyphs" textLength="118" x="1877" y="261.4189">ReplaceItem(int, T) : void</text><rect fill="#FEFECE" filter="url(#f1)" height="48" style="stroke: #A80036; stroke-width: 1.5;" width="130" x="1692" y="213"/><ellipse cx="1707" cy="229" fill="#ADD1B2" rx="11" ry="11" style="stroke: #A80036; stroke-width: 1.0;"/><path d="M1709.7656,224.875 Q1709.9219,224.6563 1710.1094,224.5469 Q1710.2969,224.4375 1710.5156,224.4375 Q1710.8906,224.4375 1711.125,224.6953 Q1711.3594,224.9531 1711.3594,225.5625 L1711.3594,227.0156 Q1711.3594,227.625 1711.125,227.8906 Q1710.8906,228.1563 1710.5156,228.1563 Q1710.1719,228.1563 1709.9688,227.9531 Q1709.7656,227.7656 1709.6563,227.25 Q1709.6094,226.8906 1709.4219,226.7031 Q1709.0938,226.3281 1708.4844,226.1094 Q1707.875,225.8906 1707.25,225.8906 Q1706.4844,225.8906 1705.8516,226.2188 Q1705.2188,226.5469 1704.7266,227.2969 Q1704.2344,228.0469 1704.2344,229.0781 L1704.2344,230.1719 Q1704.2344,231.4063 1705.125,232.2266 Q1706.0156,233.0469 1707.6094,233.0469 Q1708.5469,233.0469 1709.2031,232.7969 Q1709.5938,232.6406 1710.0156,232.2031 Q1710.2813,231.9375 1710.4297,231.8594 Q1710.5781,231.7813 1710.7813,231.7813 Q1711.1094,231.7813 1711.3672,232.0391 Q1711.625,232.2969 1711.625,232.6406 Q1711.625,232.9844 1711.2813,233.3906 Q1710.7813,233.9688 1709.9844,234.2969 Q1708.9063,234.75 1707.6094,234.75 Q1706.0938,234.75 1704.8906,234.125 Q1703.9063,233.625 1703.2188,232.5547 Q1702.5313,231.4844 1702.5313,230.2031 L1702.5313,229.0469 Q1702.5313,227.7188 1703.1484,226.5703 Q1703.7656,225.4219 1704.8594,224.8047 Q1705.9531,224.1875 1707.1875,224.1875 Q1707.9219,224.1875 1708.5703,224.3516 Q1709.2188,224.5156 1709.7656,224.875 Z "/><text fill="#000000" font-family="sans-serif" font-size="12" lengthAdjust="spacingAndGlyphs" textLength="98" x="1721" y="233.9102">ObservableObject</text><line style="stroke: #A80036; stroke-width: 1.5;" x1="1693" x2="1821" y1="245" y2="245"/><line style="stroke: #A80036; stroke-width: 1.5;" x1="1693" x2="1821" y1="253" y2="253"/><rect fill="#FEFECE" filter="url(#f1)" height="97.6953" style="stroke: #A80036; stroke-width: 1.5;" width="110" x="22" y="1678.5"/><ellipse cx="45.55" cy="1698.5938" fill="#ADD1B2" rx="11" ry="11" style="stroke: #A80036; stroke-width: 1.0;"/><path d="M48.3156,1694.4688 Q48.4719,1694.25 48.6594,1694.1406 Q48.8469,1694.0313 49.0656,1694.0313 Q49.4406,1694.0313 49.675,1694.2891 Q49.9094,1694.5469 49.9094,1695.1563 L49.9094,1696.6094 Q49.9094,1697.2188 49.675,1697.4844 Q49.4406,1697.75 49.0656,1697.75 Q48.7219,1697.75 48.5188,1697.5469 Q48.3156,1697.3594 48.2063,1696.8438 Q48.1594,1696.4844 47.9719,1696.2969 Q47.6438,1695.9219 47.0344,1695.7031 Q46.425,1695.4844 45.8,1695.4844 Q45.0344,1695.4844 44.4016,1695.8125 Q43.7688,1696.1406 43.2766,1696.8906 Q42.7844,1697.6406 42.7844,1698.6719 L42.7844,1699.7656 Q42.7844,1701 43.675,1701.8203 Q44.5656,1702.6406 46.1594,1702.6406 Q47.0969,1702.6406 47.7531,1702.3906 Q48.1438,1702.2344 48.5656,1701.7969 Q48.8313,1701.5313 48.9797,1701.4531 Q49.1281,1701.375 49.3313,1701.375 Q49.6594,1701.375 49.9172,1701.6328 Q50.175,1701.8906 50.175,1702.2344 Q50.175,1702.5781 49.8313,1702.9844 Q49.3313,1703.5625 48.5344,1703.8906 Q47.4563,1704.3438 46.1594,1704.3438 Q44.6438,1704.3438 43.4406,1703.7188 Q42.4563,1703.2188 41.7688,1702.1484 Q41.0813,1701.0781 41.0813,1699.7969 L41.0813,1698.6406 Q41.0813,1697.3125 41.6984,1696.1641 Q42.3156,1695.0156 43.4094,1694.3984 Q44.5031,1693.7813 45.7375,1693.7813 Q46.4719,1693.7813 47.1203,1693.9453 Q47.7688,1694.1094 48.3156,1694.4688 Z "/><text fill="#000000" font-family="sans-serif" font-size="12" font-style="italic" lengthAdjust="spacingAndGlyphs" textLength="63" x="59.45" y="1695.957">&lt;&lt; entity &gt;&gt;</text><text fill="#000000" font-family="sans-serif" font-size="12" lengthAdjust="spacingAndGlyphs" textLength="45" x="68.45" y="1711.0508">Teacher</text><line style="stroke: #A80036; stroke-width: 1.5;" x1="23" x2="131" y1="1718.6875" y2="1718.6875"/><ellipse cx="33" cy="1731.1055" fill="none" rx="3" ry="3" style="stroke: #038048; stroke-width: 1.0;"/><text fill="#000000" font-family="sans-serif" font-size="11" lengthAdjust="spacingAndGlyphs" textLength="28" x="42" y="1734.1064">Id : int</text><ellipse cx="33" cy="1744.9414" fill="none" rx="3" ry="3" style="stroke: #038048; stroke-width: 1.0;"/><text fill="#000000" font-family="sans-serif" font-size="11" lengthAdjust="spacingAndGlyphs" textLength="84" x="42" y="1747.9424">FirstName : string</text><ellipse cx="33" cy="1758.7773" fill="none" rx="3" ry="3" style="stroke: #038048; stroke-width: 1.0;"/><text fill="#000000" font-family="sans-serif" font-size="11" lengthAdjust="spacingAndGlyphs" textLength="84" x="42" y="1761.7783">LastName : string</text><line style="stroke: #A80036; stroke-width: 1.5;" x1="23" x2="131" y1="1768.1953" y2="1768.1953"/><rect fill="#FEFECE" filter="url(#f1)" height="83.8594" style="stroke: #A80036; stroke-width: 1.5;" width="118" x="167" y="1685.5"/><ellipse cx="182" cy="1705.5938" fill="#ADD1B2" rx="11" ry="11" style="stroke: #A80036; stroke-width: 1.0;"/><path d="M184.7656,1701.4688 Q184.9219,1701.25 185.1094,1701.1406 Q185.2969,1701.0313 185.5156,1701.0313 Q185.8906,1701.0313 186.125,1701.2891 Q186.3594,1701.5469 186.3594,1702.1563 L186.3594,1703.6094 Q186.3594,1704.2188 186.125,1704.4844 Q185.8906,1704.75 185.5156,1704.75 Q185.1719,1704.75 184.9688,1704.5469 Q184.7656,1704.3594 184.6563,1703.8438 Q184.6094,1703.4844 184.4219,1703.2969 Q184.0938,1702.9219 183.4844,1702.7031 Q182.875,1702.4844 182.25,1702.4844 Q181.4844,1702.4844 180.8516,1702.8125 Q180.2188,1703.1406 179.7266,1703.8906 Q179.2344,1704.6406 179.2344,1705.6719 L179.2344,1706.7656 Q179.2344,1708 180.125,1708.8203 Q181.0156,1709.6406 182.6094,1709.6406 Q183.5469,1709.6406 184.2031,1709.3906 Q184.5938,1709.2344 185.0156,1708.7969 Q185.2813,1708.5313 185.4297,1708.4531 Q185.5781,1708.375 185.7813,1708.375 Q186.1094,1708.375 186.3672,1708.6328 Q186.625,1708.8906 186.625,1709.2344 Q186.625,1709.5781 186.2813,1709.9844 Q185.7813,1710.5625 184.9844,1710.8906 Q183.9063,1711.3438 182.6094,1711.3438 Q181.0938,1711.3438 179.8906,1710.7188 Q178.9063,1710.2188 178.2188,1709.1484 Q177.5313,1708.0781 177.5313,1706.7969 L177.5313,1705.6406 Q177.5313,1704.3125 178.1484,1703.1641 Q178.7656,1702.0156 179.8594,1701.3984 Q180.9531,1700.7813 182.1875,1700.7813 Q182.9219,1700.7813 183.5703,1700.9453 Q184.2188,1701.1094 184.7656,1701.4688 Z "/><text fill="#000000" font-family="sans-serif" font-size="12" font-style="italic" lengthAdjust="spacingAndGlyphs" textLength="63" x="207.5" y="1702.957">&lt;&lt; entity &gt;&gt;</text><text fill="#000000" font-family="sans-serif" font-size="12" lengthAdjust="spacingAndGlyphs" textLength="86" x="196" y="1718.0508">TeacherCourse</text><line style="stroke: #A80036; stroke-width: 1.5;" x1="168" x2="284" y1="1725.6875" y2="1725.6875"/><ellipse cx="178" cy="1738.1055" fill="none" rx="3" ry="3" style="stroke: #038048; stroke-width: 1.0;"/><text fill="#000000" font-family="sans-serif" font-size="11" lengthAdjust="spacingAndGlyphs" textLength="68" x="187" y="1741.1064">TeacherId : int</text><ellipse cx="178" cy="1751.9414" fill="none" rx="3" ry="3" style="stroke: #038048; stroke-width: 1.0;"/><text fill="#000000" font-family="sans-serif" font-size="11" lengthAdjust="spacingAndGlyphs" textLength="63" x="187" y="1754.9424">CourseId : int</text><line style="stroke: #A80036; stroke-width: 1.5;" x1="168" x2="284" y1="1761.3594" y2="1761.3594"/><rect fill="#FEFECE" filter="url(#f1)" height="111.5313" style="stroke: #A80036; stroke-width: 1.5;" width="143" x="320.5" y="1671.5"/><ellipse cx="358.9" cy="1691.5938" fill="#ADD1B2" rx="11" ry="11" style="stroke: #A80036; stroke-width: 1.0;"/><path d="M361.6656,1687.4688 Q361.8219,1687.25 362.0094,1687.1406 Q362.1969,1687.0313 362.4156,1687.0313 Q362.7906,1687.0313 363.025,1687.2891 Q363.2594,1687.5469 363.2594,1688.1563 L363.2594,1689.6094 Q363.2594,1690.2188 363.025,1690.4844 Q362.7906,1690.75 362.4156,1690.75 Q362.0719,1690.75 361.8688,1690.5469 Q361.6656,1690.3594 361.5563,1689.8438 Q361.5094,1689.4844 361.3219,1689.2969 Q360.9938,1688.9219 360.3844,1688.7031 Q359.775,1688.4844 359.15,1688.4844 Q358.3844,1688.4844 357.7516,1688.8125 Q357.1188,1689.1406 356.6266,1689.8906 Q356.1344,1690.6406 356.1344,1691.6719 L356.1344,1692.7656 Q356.1344,1694 357.025,1694.8203 Q357.9156,1695.6406 359.5094,1695.6406 Q360.4469,1695.6406 361.1031,1695.3906 Q361.4938,1695.2344 361.9156,1694.7969 Q362.1813,1694.5313 362.3297,1694.4531 Q362.4781,1694.375 362.6813,1694.375 Q363.0094,1694.375 363.2672,1694.6328 Q363.525,1694.8906 363.525,1695.2344 Q363.525,1695.5781 363.1813,1695.9844 Q362.6813,1696.5625 361.8844,1696.8906 Q360.8063,1697.3438 359.5094,1697.3438 Q357.9938,1697.3438 356.7906,1696.7188 Q355.8063,1696.2188 355.1188,1695.1484 Q354.4313,1694.0781 354.4313,1692.7969 L354.4313,1691.6406 Q354.4313,1690.3125 355.0484,1689.1641 Q355.6656,1688.0156 356.7594,1687.3984 Q357.8531,1686.7813 359.0875,1686.7813 Q359.8219,1686.7813 360.4703,1686.9453 Q361.1188,1687.1094 361.6656,1687.4688 Z "/><text fill="#000000" font-family="sans-serif" font-size="12" font-style="italic" lengthAdjust="spacingAndGlyphs" textLength="63" x="376.1" y="1688.957">&lt;&lt; entity &gt;&gt;</text><text fill="#000000" font-family="sans-serif" font-size="12" lengthAdjust="spacingAndGlyphs" textLength="41" x="387.1" y="1704.0508">Course</text><line style="stroke: #A80036; stroke-width: 1.5;" x1="321.5" x2="462.5" y1="1711.6875" y2="1711.6875"/><ellipse cx="331.5" cy="1724.1055" fill="none" rx="3" ry="3" style="stroke: #038048; stroke-width: 1.0;"/><text fill="#000000" font-family="sans-serif" font-size="11" lengthAdjust="spacingAndGlyphs" textLength="28" x="340.5" y="1727.1064">Id : int</text><ellipse cx="331.5" cy="1737.9414" fill="none" rx="3" ry="3" style="stroke: #038048; stroke-width: 1.0;"/><text fill="#000000" font-family="sans-serif" font-size="11" lengthAdjust="spacingAndGlyphs" textLength="99" x="340.5" y="1740.9424">CourseName : String</text><ellipse cx="331.5" cy="1751.7773" fill="none" rx="3" ry="3" style="stroke: #038048; stroke-width: 1.0;"/><text fill="#000000" font-family="sans-serif" font-size="11" lengthAdjust="spacingAndGlyphs" textLength="88" x="340.5" y="1754.7783">CourseLength : Int</text><ellipse cx="331.5" cy="1765.6133" fill="none" rx="3" ry="3" style="stroke: #038048; stroke-width: 1.0;"/><text fill="#000000" font-family="sans-serif" font-size="11" lengthAdjust="spacingAndGlyphs" textLength="117" x="340.5" y="1768.6143">CourseDescripton : Text</text><line style="stroke: #A80036; stroke-width: 1.5;" x1="321.5" x2="462.5" y1="1775.0313" y2="1775.0313"/><rect fill="#FEFECE" filter="url(#f1)" height="111.5313" style="stroke: #A80036; stroke-width: 1.5;" width="110" x="499" y="1671.5"/><ellipse cx="522.55" cy="1691.5938" fill="#ADD1B2" rx="11" ry="11" style="stroke: #A80036; stroke-width: 1.0;"/><path d="M525.3156,1687.4688 Q525.4719,1687.25 525.6594,1687.1406 Q525.8469,1687.0313 526.0656,1687.0313 Q526.4406,1687.0313 526.675,1687.2891 Q526.9094,1687.5469 526.9094,1688.1563 L526.9094,1689.6094 Q526.9094,1690.2188 526.675,1690.4844 Q526.4406,1690.75 526.0656,1690.75 Q525.7219,1690.75 525.5188,1690.5469 Q525.3156,1690.3594 525.2063,1689.8438 Q525.1594,1689.4844 524.9719,1689.2969 Q524.6438,1688.9219 524.0344,1688.7031 Q523.425,1688.4844 522.8,1688.4844 Q522.0344,1688.4844 521.4016,1688.8125 Q520.7688,1689.1406 520.2766,1689.8906 Q519.7844,1690.6406 519.7844,1691.6719 L519.7844,1692.7656 Q519.7844,1694 520.675,1694.8203 Q521.5656,1695.6406 523.1594,1695.6406 Q524.0969,1695.6406 524.7531,1695.3906 Q525.1438,1695.2344 525.5656,1694.7969 Q525.8313,1694.5313 525.9797,1694.4531 Q526.1281,1694.375 526.3313,1694.375 Q526.6594,1694.375 526.9172,1694.6328 Q527.175,1694.8906 527.175,1695.2344 Q527.175,1695.5781 526.8313,1695.9844 Q526.3313,1696.5625 525.5344,1696.8906 Q524.4563,1697.3438 523.1594,1697.3438 Q521.6438,1697.3438 520.4406,1696.7188 Q519.4563,1696.2188 518.7688,1695.1484 Q518.0813,1694.0781 518.0813,1692.7969 L518.0813,1691.6406 Q518.0813,1690.3125 518.6984,1689.1641 Q519.3156,1688.0156 520.4094,1687.3984 Q521.5031,1686.7813 522.7375,1686.7813 Q523.4719,1686.7813 524.1203,1686.9453 Q524.7688,1687.1094 525.3156,1687.4688 Z "/><text fill="#000000" font-family="sans-serif" font-size="12" font-style="italic" lengthAdjust="spacingAndGlyphs" textLength="63" x="536.45" y="1688.957">&lt;&lt; entity &gt;&gt;</text><text fill="#000000" font-family="sans-serif" font-size="12" lengthAdjust="spacingAndGlyphs" textLength="42" x="546.95" y="1704.0508">Student</text><line style="stroke: #A80036; stroke-width: 1.5;" x1="500" x2="608" y1="1711.6875" y2="1711.6875"/><ellipse cx="510" cy="1724.1055" fill="none" rx="3" ry="3" style="stroke: #038048; stroke-width: 1.0;"/><text fill="#000000" font-family="sans-serif" font-size="11" lengthAdjust="spacingAndGlyphs" textLength="28" x="519" y="1727.1064">Id : int</text><ellipse cx="510" cy="1737.9414" fill="none" rx="3" ry="3" style="stroke: #038048; stroke-width: 1.0;"/><text fill="#000000" font-family="sans-serif" font-size="11" lengthAdjust="spacingAndGlyphs" textLength="84" x="519" y="1740.9424">FirstName : string</text><ellipse cx="510" cy="1751.7773" fill="none" rx="3" ry="3" style="stroke: #038048; stroke-width: 1.0;"/><text fill="#000000" font-family="sans-serif" font-size="11" lengthAdjust="spacingAndGlyphs" textLength="84" x="519" y="1754.7783">LastName : string</text><ellipse cx="510" cy="1765.6133" fill="none" rx="3" ry="3" style="stroke: #038048; stroke-width: 1.0;"/><text fill="#000000" font-family="sans-serif" font-size="11" lengthAdjust="spacingAndGlyphs" textLength="81" x="519" y="1768.6143">Company : string</text><line style="stroke: #A80036; stroke-width: 1.5;" x1="500" x2="608" y1="1775.0313" y2="1775.0313"/><rect fill="#FEFECE" filter="url(#f1)" height="97.6953" style="stroke: #A80036; stroke-width: 1.5;" width="128" x="644" y="1678.5"/><ellipse cx="675.65" cy="1698.5938" fill="#ADD1B2" rx="11" ry="11" style="stroke: #A80036; stroke-width: 1.0;"/><path d="M678.4156,1694.4688 Q678.5719,1694.25 678.7594,1694.1406 Q678.9469,1694.0313 679.1656,1694.0313 Q679.5406,1694.0313 679.775,1694.2891 Q680.0094,1694.5469 680.0094,1695.1563 L680.0094,1696.6094 Q680.0094,1697.2188 679.775,1697.4844 Q679.5406,1697.75 679.1656,1697.75 Q678.8219,1697.75 678.6188,1697.5469 Q678.4156,1697.3594 678.3063,1696.8438 Q678.2594,1696.4844 678.0719,1696.2969 Q677.7438,1695.9219 677.1344,1695.7031 Q676.525,1695.4844 675.9,1695.4844 Q675.1344,1695.4844 674.5016,1695.8125 Q673.8688,1696.1406 673.3766,1696.8906 Q672.8844,1697.6406 672.8844,1698.6719 L672.8844,1699.7656 Q672.8844,1701 673.775,1701.8203 Q674.6656,1702.6406 676.2594,1702.6406 Q677.1969,1702.6406 677.8531,1702.3906 Q678.2438,1702.2344 678.6656,1701.7969 Q678.9313,1701.5313 679.0797,1701.4531 Q679.2281,1701.375 679.4313,1701.375 Q679.7594,1701.375 680.0172,1701.6328 Q680.275,1701.8906 680.275,1702.2344 Q680.275,1702.5781 679.9313,1702.9844 Q679.4313,1703.5625 678.6344,1703.8906 Q677.5563,1704.3438 676.2594,1704.3438 Q674.7438,1704.3438 673.5406,1703.7188 Q672.5563,1703.2188 671.8688,1702.1484 Q671.1813,1701.0781 671.1813,1699.7969 L671.1813,1698.6406 Q671.1813,1697.3125 671.7984,1696.1641 Q672.4156,1695.0156 673.5094,1694.3984 Q674.6031,1693.7813 675.8375,1693.7813 Q676.5719,1693.7813 677.2203,1693.9453 Q677.8688,1694.1094 678.4156,1694.4688 Z "/><text fill="#000000" font-family="sans-serif" font-size="12" font-style="italic" lengthAdjust="spacingAndGlyphs" textLength="63" x="691.35" y="1695.957">&lt;&lt; entity &gt;&gt;</text><text fill="#000000" font-family="sans-serif" font-size="12" lengthAdjust="spacingAndGlyphs" textLength="32" x="706.85" y="1711.0508">Team</text><line style="stroke: #A80036; stroke-width: 1.5;" x1="645" x2="771" y1="1718.6875" y2="1718.6875"/><ellipse cx="655" cy="1731.1055" fill="none" rx="3" ry="3" style="stroke: #038048; stroke-width: 1.0;"/><text fill="#000000" font-family="sans-serif" font-size="11" lengthAdjust="spacingAndGlyphs" textLength="28" x="664" y="1734.1064">Id : int</text><ellipse cx="655" cy="1744.9414" fill="none" rx="3" ry="3" style="stroke: #038048; stroke-width: 1.0;"/><text fill="#000000" font-family="sans-serif" font-size="11" lengthAdjust="spacingAndGlyphs" textLength="102" x="664" y="1747.9424">NumberOfWeeks : int</text><ellipse cx="655" cy="1758.7773" fill="none" rx="3" ry="3" style="stroke: #038048; stroke-width: 1.0;"/><text fill="#000000" font-family="sans-serif" font-size="11" lengthAdjust="spacingAndGlyphs" textLength="89" x="664" y="1761.7783">TeamName : string</text><line style="stroke: #A80036; stroke-width: 1.5;" x1="645" x2="771" y1="1768.1953" y2="1768.1953"/><rect fill="#FEFECE" filter="url(#f1)" height="139.2031" style="stroke: #A80036; stroke-width: 1.5;" width="156" x="807" y="1658"/><ellipse cx="842.25" cy="1678.0938" fill="#ADD1B2" rx="11" ry="11" style="stroke: #A80036; stroke-width: 1.0;"/><path d="M845.0156,1673.9688 Q845.1719,1673.75 845.3594,1673.6406 Q845.5469,1673.5313 845.7656,1673.5313 Q846.1406,1673.5313 846.375,1673.7891 Q846.6094,1674.0469 846.6094,1674.6563 L846.6094,1676.1094 Q846.6094,1676.7188 846.375,1676.9844 Q846.1406,1677.25 845.7656,1677.25 Q845.4219,1677.25 845.2188,1677.0469 Q845.0156,1676.8594 844.9063,1676.3438 Q844.8594,1675.9844 844.6719,1675.7969 Q844.3438,1675.4219 843.7344,1675.2031 Q843.125,1674.9844 842.5,1674.9844 Q841.7344,1674.9844 841.1016,1675.3125 Q840.4688,1675.6406 839.9766,1676.3906 Q839.4844,1677.1406 839.4844,1678.1719 L839.4844,1679.2656 Q839.4844,1680.5 840.375,1681.3203 Q841.2656,1682.1406 842.8594,1682.1406 Q843.7969,1682.1406 844.4531,1681.8906 Q844.8438,1681.7344 845.2656,1681.2969 Q845.5313,1681.0313 845.6797,1680.9531 Q845.8281,1680.875 846.0313,1680.875 Q846.3594,1680.875 846.6172,1681.1328 Q846.875,1681.3906 846.875,1681.7344 Q846.875,1682.0781 846.5313,1682.4844 Q846.0313,1683.0625 845.2344,1683.3906 Q844.1563,1683.8438 842.8594,1683.8438 Q841.3438,1683.8438 840.1406,1683.2188 Q839.1563,1682.7188 838.4688,1681.6484 Q837.7813,1680.5781 837.7813,1679.2969 L837.7813,1678.1406 Q837.7813,1676.8125 838.3984,1675.6641 Q839.0156,1674.5156 840.1094,1673.8984 Q841.2031,1673.2813 842.4375,1673.2813 Q843.1719,1673.2813 843.8203,1673.4453 Q844.4688,1673.6094 845.0156,1673.9688 Z "/><text fill="#000000" font-family="sans-serif" font-size="12" font-style="italic" lengthAdjust="spacingAndGlyphs" textLength="63" x="868.75" y="1675.457">&lt;&lt; entity &gt;&gt;</text><text fill="#000000" font-family="sans-serif" font-size="12" lengthAdjust="spacingAndGlyphs" textLength="79" x="860.75" y="1690.5508">TeamInstance</text><line style="stroke: #A80036; stroke-width: 1.5;" x1="808" x2="962" y1="1698.1875" y2="1698.1875"/><ellipse cx="818" cy="1710.6055" fill="none" rx="3" ry="3" style="stroke: #038048; stroke-width: 1.0;"/><text fill="#000000" font-family="sans-serif" font-size="11" lengthAdjust="spacingAndGlyphs" textLength="28" x="827" y="1713.6064">Id : int</text><ellipse cx="818" cy="1724.4414" fill="none" rx="3" ry="3" style="stroke: #038048; stroke-width: 1.0;"/><text fill="#000000" font-family="sans-serif" font-size="11" lengthAdjust="spacingAndGlyphs" textLength="65" x="827" y="1727.4424">StudentId : int</text><ellipse cx="818" cy="1738.2773" fill="none" rx="3" ry="3" style="stroke: #038048; stroke-width: 1.0;"/><text fill="#000000" font-family="sans-serif" font-size="11" lengthAdjust="spacingAndGlyphs" textLength="54" x="827" y="1741.2783">TeamId : int</text><ellipse cx="818" cy="1752.1133" fill="none" rx="3" ry="3" style="stroke: #038048; stroke-width: 1.0;"/><text fill="#000000" font-family="sans-serif" font-size="11" lengthAdjust="spacingAndGlyphs" textLength="130" x="827" y="1755.1143">TeamInstanceName : string</text><ellipse cx="818" cy="1765.9492" fill="none" rx="3" ry="3" style="stroke: #038048; stroke-width: 1.0;"/><text fill="#000000" font-family="sans-serif" font-size="11" lengthAdjust="spacingAndGlyphs" textLength="94" x="827" y="1768.9502">StartDate : datetime</text><ellipse cx="818" cy="1779.7852" fill="none" rx="3" ry="3" style="stroke: #038048; stroke-width: 1.0;"/><text fill="#000000" font-family="sans-serif" font-size="11" lengthAdjust="spacingAndGlyphs" textLength="89" x="827" y="1782.7861">EndDate : datetime</text><line style="stroke: #A80036; stroke-width: 1.5;" x1="808" x2="962" y1="1789.2031" y2="1789.2031"/><rect fill="#FEFECE" filter="url(#f1)" height="111.5313" style="stroke: #A80036; stroke-width: 1.5;" width="152" x="998" y="1671.5"/><ellipse cx="1013" cy="1691.5938" fill="#ADD1B2" rx="11" ry="11" style="stroke: #A80036; stroke-width: 1.0;"/><path d="M1015.7656,1687.4688 Q1015.9219,1687.25 1016.1094,1687.1406 Q1016.2969,1687.0313 1016.5156,1687.0313 Q1016.8906,1687.0313 1017.125,1687.2891 Q1017.3594,1687.5469 1017.3594,1688.1563 L1017.3594,1689.6094 Q1017.3594,1690.2188 1017.125,1690.4844 Q1016.8906,1690.75 1016.5156,1690.75 Q1016.1719,1690.75 1015.9688,1690.5469 Q1015.7656,1690.3594 1015.6563,1689.8438 Q1015.6094,1689.4844 1015.4219,1689.2969 Q1015.0938,1688.9219 1014.4844,1688.7031 Q1013.875,1688.4844 1013.25,1688.4844 Q1012.4844,1688.4844 1011.8516,1688.8125 Q1011.2188,1689.1406 1010.7266,1689.8906 Q1010.2344,1690.6406 1010.2344,1691.6719 L1010.2344,1692.7656 Q1010.2344,1694 1011.125,1694.8203 Q1012.0156,1695.6406 1013.6094,1695.6406 Q1014.5469,1695.6406 1015.2031,1695.3906 Q1015.5938,1695.2344 1016.0156,1694.7969 Q1016.2813,1694.5313 1016.4297,1694.4531 Q1016.5781,1694.375 1016.7813,1694.375 Q1017.1094,1694.375 1017.3672,1694.6328 Q1017.625,1694.8906 1017.625,1695.2344 Q1017.625,1695.5781 1017.2813,1695.9844 Q1016.7813,1696.5625 1015.9844,1696.8906 Q1014.9063,1697.3438 1013.6094,1697.3438 Q1012.0938,1697.3438 1010.8906,1696.7188 Q1009.9063,1696.2188 1009.2188,1695.1484 Q1008.5313,1694.0781 1008.5313,1692.7969 L1008.5313,1691.6406 Q1008.5313,1690.3125 1009.1484,1689.1641 Q1009.7656,1688.0156 1010.8594,1687.3984 Q1011.9531,1686.7813 1013.1875,1686.7813 Q1013.9219,1686.7813 1014.5703,1686.9453 Q1015.2188,1687.1094 1015.7656,1687.4688 Z "/><text fill="#000000" font-family="sans-serif" font-size="12" font-style="italic" lengthAdjust="spacingAndGlyphs" textLength="63" x="1055.5" y="1688.957">&lt;&lt; entity &gt;&gt;</text><text fill="#000000" font-family="sans-serif" font-size="12" lengthAdjust="spacingAndGlyphs" textLength="120" x="1027" y="1704.0508">TeamInstanceCourse</text><line style="stroke: #A80036; stroke-width: 1.5;" x1="999" x2="1149" y1="1711.6875" y2="1711.6875"/><ellipse cx="1009" cy="1724.1055" fill="none" rx="3" ry="3" style="stroke: #038048; stroke-width: 1.0;"/><text fill="#000000" font-family="sans-serif" font-size="11" lengthAdjust="spacingAndGlyphs" textLength="63" x="1018" y="1727.1064">CourseId : int</text><ellipse cx="1009" cy="1737.9414" fill="none" rx="3" ry="3" style="stroke: #038048; stroke-width: 1.0;"/><text fill="#000000" font-family="sans-serif" font-size="11" lengthAdjust="spacingAndGlyphs" textLength="95" x="1018" y="1740.9424">TeamInstanceId : int</text><ellipse cx="1009" cy="1751.7773" fill="none" rx="3" ry="3" style="stroke: #038048; stroke-width: 1.0;"/><text fill="#000000" font-family="sans-serif" font-size="11" lengthAdjust="spacingAndGlyphs" textLength="47" x="1018" y="1754.7783">Week : int</text><ellipse cx="1009" cy="1765.6133" fill="none" rx="3" ry="3" style="stroke: #038048; stroke-width: 1.0;"/><text fill="#000000" font-family="sans-serif" font-size="11" lengthAdjust="spacingAndGlyphs" textLength="68" x="1018" y="1768.6143">TeacherId : int</text><line style="stroke: #A80036; stroke-width: 1.5;" x1="999" x2="1149" y1="1775.0313" y2="1775.0313"/><rect fill="#FEFECE" filter="url(#f1)" height="158.6875" style="stroke: #A80036; stroke-width: 1.5;" width="206" x="451" y="1141.5"/><ellipse cx="516.25" cy="1157.5" fill="#ADD1B2" rx="11" ry="11" style="stroke: #A80036; stroke-width: 1.0;"/><path d="M519.0156,1153.375 Q519.1719,1153.1563 519.3594,1153.0469 Q519.5469,1152.9375 519.7656,1152.9375 Q520.1406,1152.9375 520.375,1153.1953 Q520.6094,1153.4531 520.6094,1154.0625 L520.6094,1155.5156 Q520.6094,1156.125 520.375,1156.3906 Q520.1406,1156.6563 519.7656,1156.6563 Q519.4219,1156.6563 519.2188,1156.4531 Q519.0156,1156.2656 518.9063,1155.75 Q518.8594,1155.3906 518.6719,1155.2031 Q518.3438,1154.8281 517.7344,1154.6094 Q517.125,1154.3906 516.5,1154.3906 Q515.7344,1154.3906 515.1016,1154.7188 Q514.4688,1155.0469 513.9766,1155.7969 Q513.4844,1156.5469 513.4844,1157.5781 L513.4844,1158.6719 Q513.4844,1159.9063 514.375,1160.7266 Q515.2656,1161.5469 516.8594,1161.5469 Q517.7969,1161.5469 518.4531,1161.2969 Q518.8438,1161.1406 519.2656,1160.7031 Q519.5313,1160.4375 519.6797,1160.3594 Q519.8281,1160.2813 520.0313,1160.2813 Q520.3594,1160.2813 520.6172,1160.5391 Q520.875,1160.7969 520.875,1161.1406 Q520.875,1161.4844 520.5313,1161.8906 Q520.0313,1162.4688 519.2344,1162.7969 Q518.1563,1163.25 516.8594,1163.25 Q515.3438,1163.25 514.1406,1162.625 Q513.1563,1162.125 512.4688,1161.0547 Q511.7813,1159.9844 511.7813,1158.7031 L511.7813,1157.5469 Q511.7813,1156.2188 512.3984,1155.0703 Q513.0156,1153.9219 514.1094,1153.3047 Q515.2031,1152.6875 516.4375,1152.6875 Q517.1719,1152.6875 517.8203,1152.8516 Q518.4688,1153.0156 519.0156,1153.375 Z "/><text fill="#000000" font-family="sans-serif" font-size="12" lengthAdjust="spacingAndGlyphs" textLength="67" x="536.75" y="1162.4102">DataContext</text><line style="stroke: #A80036; stroke-width: 1.5;" x1="452" x2="656" y1="1173.5" y2="1173.5"/><ellipse cx="462" cy="1185.918" fill="none" rx="3" ry="3" style="stroke: #038048; stroke-width: 1.0;"/><text fill="#000000" font-family="sans-serif" font-size="11" lengthAdjust="spacingAndGlyphs" textLength="81" x="471" y="1188.9189">Students : DbSet</text><ellipse cx="462" cy="1199.7539" fill="none" rx="3" ry="3" style="stroke: #038048; stroke-width: 1.0;"/><text fill="#000000" font-family="sans-serif" font-size="11" lengthAdjust="spacingAndGlyphs" textLength="84" x="471" y="1202.7549">Teachers : DbSet</text><ellipse cx="462" cy="1213.5898" fill="none" rx="3" ry="3" style="stroke: #038048; stroke-width: 1.0;"/><text fill="#000000" font-family="sans-serif" font-size="11" lengthAdjust="spacingAndGlyphs" textLength="79" x="471" y="1216.5908">Courses : DbSet</text><ellipse cx="462" cy="1227.4258" fill="none" rx="3" ry="3" style="stroke: #038048; stroke-width: 1.0;"/><text fill="#000000" font-family="sans-serif" font-size="11" lengthAdjust="spacingAndGlyphs" textLength="119" x="471" y="1230.4268">TeacherCourses : DbSet</text><ellipse cx="462" cy="1241.2617" fill="none" rx="3" ry="3" style="stroke: #038048; stroke-width: 1.0;"/><text fill="#000000" font-family="sans-serif" font-size="11" lengthAdjust="spacingAndGlyphs" textLength="70" x="471" y="1244.2627">Teams : DbSet</text><ellipse cx="462" cy="1255.0977" fill="none" rx="3" ry="3" style="stroke: #038048; stroke-width: 1.0;"/><text fill="#000000" font-family="sans-serif" font-size="11" lengthAdjust="spacingAndGlyphs" textLength="111" x="471" y="1258.0986">TeamInstances : DbSet</text><ellipse cx="462" cy="1268.9336" fill="none" rx="3" ry="3" style="stroke: #038048; stroke-width: 1.0;"/><text fill="#000000" font-family="sans-serif" font-size="11" lengthAdjust="spacingAndGlyphs" textLength="152" x="471" y="1271.9346">TeamInstancesCourses : DbSet</text><line style="stroke: #A80036; stroke-width: 1.5;" x1="452" x2="656" y1="1278.3516" y2="1278.3516"/><polygon fill="#FFFF44" points="462,1285.7695,466,1289.7695,462,1293.7695,458,1289.7695" style="stroke: #B38D22; stroke-width: 1.0;"/><text fill="#000000" font-family="sans-serif" font-size="11" lengthAdjust="spacingAndGlyphs" textLength="180" x="471" y="1293.7705">OnModelCreating(modelBuilder) : void</text><rect fill="#FEFECE" filter="url(#f1)" height="573.7656" style="stroke: #A80036; stroke-width: 1.5;" width="310" x="106" y="934"/><ellipse cx="209.75" cy="950" fill="#ADD1B2" rx="11" ry="11" style="stroke: #A80036; stroke-width: 1.0;"/><path d="M212.5156,945.875 Q212.6719,945.6563 212.8594,945.5469 Q213.0469,945.4375 213.2656,945.4375 Q213.6406,945.4375 213.875,945.6953 Q214.1094,945.9531 214.1094,946.5625 L214.1094,948.0156 Q214.1094,948.625 213.875,948.8906 Q213.6406,949.1563 213.2656,949.1563 Q212.9219,949.1563 212.7188,948.9531 Q212.5156,948.7656 212.4063,948.25 Q212.3594,947.8906 212.1719,947.7031 Q211.8438,947.3281 211.2344,947.1094 Q210.625,946.8906 210,946.8906 Q209.2344,946.8906 208.6016,947.2188 Q207.9688,947.5469 207.4766,948.2969 Q206.9844,949.0469 206.9844,950.0781 L206.9844,951.1719 Q206.9844,952.4063 207.875,953.2266 Q208.7656,954.0469 210.3594,954.0469 Q211.2969,954.0469 211.9531,953.7969 Q212.3438,953.6406 212.7656,953.2031 Q213.0313,952.9375 213.1797,952.8594 Q213.3281,952.7813 213.5313,952.7813 Q213.8594,952.7813 214.1172,953.0391 Q214.375,953.2969 214.375,953.6406 Q214.375,953.9844 214.0313,954.3906 Q213.5313,954.9688 212.7344,955.2969 Q211.6563,955.75 210.3594,955.75 Q208.8438,955.75 207.6406,955.125 Q206.6563,954.625 205.9688,953.5547 Q205.2813,952.4844 205.2813,951.2031 L205.2813,950.0469 Q205.2813,948.7188 205.8984,947.5703 Q206.5156,946.4219 207.6094,945.8047 Q208.7031,945.1875 209.9375,945.1875 Q210.6719,945.1875 211.3203,945.3516 Q211.9688,945.5156 212.5156,945.875 Z "/><text fill="#000000" font-family="sans-serif" font-size="12" lengthAdjust="spacingAndGlyphs" textLength="94" x="230.25" y="954.9102">BusinessContext</text><line style="stroke: #A80036; stroke-width: 1.5;" x1="107" x2="415" y1="966" y2="966"/><rect fill="none" height="6" style="stroke: #C82930; stroke-width: 1.0;" width="6" x="114" y="975.418"/><text fill="#000000" font-family="sans-serif" font-size="11" lengthAdjust="spacingAndGlyphs" textLength="104" x="126" y="981.4189">context : DataContext</text><rect fill="none" height="6" style="stroke: #C82930; stroke-width: 1.0;" width="6" x="114" y="989.2539"/><text fill="#000000" font-family="sans-serif" font-size="11" lengthAdjust="spacingAndGlyphs" textLength="73" x="126" y="995.2549">disposed : bool</text><ellipse cx="117" cy="1006.0898" fill="none" rx="3" ry="3" style="stroke: #038048; stroke-width: 1.0;"/><text fill="#000000" font-family="sans-serif" font-size="11" lengthAdjust="spacingAndGlyphs" textLength="127" x="126" y="1009.0908">DataContext : DataContext</text><line style="stroke: #A80036; stroke-width: 1.5;" x1="107" x2="415" y1="1015.5078" y2="1015.5078"/><ellipse cx="117" cy="1027.9258" fill="#84BE84" rx="3" ry="3" style="stroke: #038048; stroke-width: 1.0;"/><text fill="#000000" font-family="sans-serif" font-size="11" lengthAdjust="spacingAndGlyphs" textLength="141" x="126" y="1030.9268">GetAllStudents() : IQueryable</text><ellipse cx="117" cy="1041.7617" fill="#84BE84" rx="3" ry="3" style="stroke: #038048; stroke-width: 1.0;"/><text fill="#000000" font-family="sans-serif" font-size="11" lengthAdjust="spacingAndGlyphs" textLength="140" x="126" y="1044.7627">GetStudentById(int) : Student</text><ellipse cx="117" cy="1055.5977" fill="#84BE84" rx="3" ry="3" style="stroke: #038048; stroke-width: 1.0;"/><text fill="#000000" font-family="sans-serif" font-size="11" lengthAdjust="spacingAndGlyphs" textLength="154" x="126" y="1058.5986">AddNewStudent(Student) : void</text><ellipse cx="117" cy="1069.4336" fill="#84BE84" rx="3" ry="3" style="stroke: #038048; stroke-width: 1.0;"/><text fill="#000000" font-family="sans-serif" font-size="11" lengthAdjust="spacingAndGlyphs" textLength="128" x="126" y="1072.4346">EditStudent(Student) : void</text><ellipse cx="117" cy="1083.2695" fill="#84BE84" rx="3" ry="3" style="stroke: #038048; stroke-width: 1.0;"/><text fill="#000000" font-family="sans-serif" font-size="11" lengthAdjust="spacingAndGlyphs" textLength="141" x="126" y="1086.2705">DeleteStudent(Student) : void</text><text fill="#000000" font-family="sans-serif" font-size="11" lengthAdjust="spacingAndGlyphs" textLength="0" x="129" y="1100.1064"/><ellipse cx="117" cy="1110.9414" fill="#84BE84" rx="3" ry="3" style="stroke: #038048; stroke-width: 1.0;"/><text fill="#000000" font-family="sans-serif" font-size="11" lengthAdjust="spacingAndGlyphs" textLength="144" x="126" y="1113.9424">GetAllTeachers() : IQueryable</text><ellipse cx="117" cy="1124.7773" fill="#84BE84" rx="3" ry="3" style="stroke: #038048; stroke-width: 1.0;"/><text fill="#000000" font-family="sans-serif" font-size="11" lengthAdjust="spacingAndGlyphs" textLength="146" x="126" y="1127.7783">GetTeacherById(int) : Teacher</text><ellipse cx="117" cy="1138.6133" fill="#84BE84" rx="3" ry="3" style="stroke: #038048; stroke-width: 1.0;"/><text fill="#000000" font-family="sans-serif" font-size="11" lengthAdjust="spacingAndGlyphs" textLength="160" x="126" y="1141.6143">AddNewTeacher(Teacher) : void</text><ellipse cx="117" cy="1152.4492" fill="#84BE84" rx="3" ry="3" style="stroke: #038048; stroke-width: 1.0;"/><text fill="#000000" font-family="sans-serif" font-size="11" lengthAdjust="spacingAndGlyphs" textLength="134" x="126" y="1155.4502">EditTeacher(Teacher) : void</text><ellipse cx="117" cy="1166.2852" fill="#84BE84" rx="3" ry="3" style="stroke: #038048; stroke-width: 1.0;"/><text fill="#000000" font-family="sans-serif" font-size="11" lengthAdjust="spacingAndGlyphs" textLength="147" x="126" y="1169.2861">DeleteTeacher(Teacher) : void</text><text fill="#000000" font-family="sans-serif" font-size="11" lengthAdjust="spacingAndGlyphs" textLength="0" x="129" y="1183.1221"/><ellipse cx="117" cy="1193.957" fill="#84BE84" rx="3" ry="3" style="stroke: #038048; stroke-width: 1.0;"/><text fill="#000000" font-family="sans-serif" font-size="11" lengthAdjust="spacingAndGlyphs" textLength="130" x="126" y="1196.958">GetAllTeams() : IQueryable</text><ellipse cx="117" cy="1207.793" fill="#84BE84" rx="3" ry="3" style="stroke: #038048; stroke-width: 1.0;"/><text fill="#000000" font-family="sans-serif" font-size="11" lengthAdjust="spacingAndGlyphs" textLength="118" x="126" y="1210.7939">GetTeamById(int) : Team</text><ellipse cx="117" cy="1221.6289" fill="#84BE84" rx="3" ry="3" style="stroke: #038048; stroke-width: 1.0;"/><text fill="#000000" font-family="sans-serif" font-size="11" lengthAdjust="spacingAndGlyphs" textLength="132" x="126" y="1224.6299">AddNewTeam(Team) : void</text><ellipse cx="117" cy="1235.4648" fill="#84BE84" rx="3" ry="3" style="stroke: #038048; stroke-width: 1.0;"/><text fill="#000000" font-family="sans-serif" font-size="11" lengthAdjust="spacingAndGlyphs" textLength="106" x="126" y="1238.4658">EditTeam(Team) : void</text><ellipse cx="117" cy="1249.3008" fill="#84BE84" rx="3" ry="3" style="stroke: #038048; stroke-width: 1.0;"/><text fill="#000000" font-family="sans-serif" font-size="11" lengthAdjust="spacingAndGlyphs" textLength="119" x="126" y="1252.3018">DeleteTeam(Team) : void</text><text fill="#000000" font-family="sans-serif" font-size="11" lengthAdjust="spacingAndGlyphs" textLength="0" x="129" y="1266.1377"/><ellipse cx="117" cy="1276.9727" fill="#84BE84" rx="3" ry="3" style="stroke: #038048; stroke-width: 1.0;"/><text fill="#000000" font-family="sans-serif" font-size="11" lengthAdjust="spacingAndGlyphs" textLength="139" x="126" y="1279.9736">GetAllCourses() : IQueryable</text><ellipse cx="117" cy="1290.8086" fill="#84BE84" rx="3" ry="3" style="stroke: #038048; stroke-width: 1.0;"/><text fill="#000000" font-family="sans-serif" font-size="11" lengthAdjust="spacingAndGlyphs" textLength="136" x="126" y="1293.8096">GetCourseById(int) : Course</text><ellipse cx="117" cy="1304.6445" fill="#84BE84" rx="3" ry="3" style="stroke: #038048; stroke-width: 1.0;"/><text fill="#000000" font-family="sans-serif" font-size="11" lengthAdjust="spacingAndGlyphs" textLength="150" x="126" y="1307.6455">AddNewCourse(Course) : void</text><ellipse cx="117" cy="1318.4805" fill="#84BE84" rx="3" ry="3" style="stroke: #038048; stroke-width: 1.0;"/><text fill="#000000" font-family="sans-serif" font-size="11" lengthAdjust="spacingAndGlyphs" textLength="124" x="126" y="1321.4814">EditCourse(Course) : void</text><ellipse cx="117" cy="1332.3164" fill="#84BE84" rx="3" ry="3" style="stroke: #038048; stroke-width: 1.0;"/><text fill="#000000" font-family="sans-serif" font-size="11" lengthAdjust="spacingAndGlyphs" textLength="137" x="126" y="1335.3174">DeleteCourse(Course) : void</text><text fill="#000000" font-family="sans-serif" font-size="11" lengthAdjust="spacingAndGlyphs" textLength="0" x="129" y="1349.1533"/><ellipse cx="117" cy="1359.9883" fill="#84BE84" rx="3" ry="3" style="stroke: #038048; stroke-width: 1.0;"/><text fill="#000000" font-family="sans-serif" font-size="11" lengthAdjust="spacingAndGlyphs" textLength="171" x="126" y="1362.9893">GetAllTeamInstances() : IQueryable</text><ellipse cx="117" cy="1373.8242" fill="#84BE84" rx="3" ry="3" style="stroke: #038048; stroke-width: 1.0;"/><text fill="#000000" font-family="sans-serif" font-size="11" lengthAdjust="spacingAndGlyphs" textLength="200" x="126" y="1376.8252">GetTeamInstanceById(int) : TeamInstance</text><ellipse cx="117" cy="1387.6602" fill="#84BE84" rx="3" ry="3" style="stroke: #038048; stroke-width: 1.0;"/><text fill="#000000" font-family="sans-serif" font-size="11" lengthAdjust="spacingAndGlyphs" textLength="214" x="126" y="1390.6611">AddNewTeamInstance(TeamInstance) : void</text><ellipse cx="117" cy="1401.4961" fill="#84BE84" rx="3" ry="3" style="stroke: #038048; stroke-width: 1.0;"/><text fill="#000000" font-family="sans-serif" font-size="11" lengthAdjust="spacingAndGlyphs" textLength="188" x="126" y="1404.4971">EditTeamInstance(TeamInstance) : void</text><ellipse cx="117" cy="1415.332" fill="#84BE84" rx="3" ry="3" style="stroke: #038048; stroke-width: 1.0;"/><text fill="#000000" font-family="sans-serif" font-size="11" lengthAdjust="spacingAndGlyphs" textLength="201" x="126" y="1418.333">DeleteTeamInstance(TeamInstance) : void</text><text fill="#000000" font-family="sans-serif" font-size="11" lengthAdjust="spacingAndGlyphs" textLength="0" x="129" y="1432.1689"/><ellipse cx="117" cy="1443.0039" fill="#84BE84" rx="3" ry="3" style="stroke: #038048; stroke-width: 1.0;"/><text fill="#000000" font-family="sans-serif" font-size="11" lengthAdjust="spacingAndGlyphs" textLength="206" x="126" y="1446.0049">GetAllTeamInstanceCourses() : IQueryable</text><ellipse cx="117" cy="1456.8398" fill="#84BE84" rx="3" ry="3" style="stroke: #038048; stroke-width: 1.0;"/><text fill="#000000" font-family="sans-serif" font-size="11" lengthAdjust="spacingAndGlyphs" textLength="270" x="126" y="1459.8408">GetTeamInstanceCourseById(int) : TeamInstanceCourse</text><ellipse cx="117" cy="1470.6758" fill="#84BE84" rx="3" ry="3" style="stroke: #038048; stroke-width: 1.0;"/><text fill="#000000" font-family="sans-serif" font-size="11" lengthAdjust="spacingAndGlyphs" textLength="284" x="126" y="1473.6768">AddNewTeamInstanceCourse(TeamInstanceCourse) : void</text><ellipse cx="117" cy="1484.5117" fill="#84BE84" rx="3" ry="3" style="stroke: #038048; stroke-width: 1.0;"/><text fill="#000000" font-family="sans-serif" font-size="11" lengthAdjust="spacingAndGlyphs" textLength="258" x="126" y="1487.5127">EditTeamInstanceCourse(TeamInstanceCourse) : void</text><ellipse cx="117" cy="1498.3477" fill="#84BE84" rx="3" ry="3" style="stroke: #038048; stroke-width: 1.0;"/><text fill="#000000" font-family="sans-serif" font-size="11" lengthAdjust="spacingAndGlyphs" textLength="271" x="126" y="1501.3486">DeleteTeamInstanceCourse(TeamInstanceCourse) : void</text><rect fill="#FEFECE" filter="url(#f1)" height="366.2266" style="stroke: #A80036; stroke-width: 1.5;" width="243" x="1240.5" y="418"/><ellipse cx="1307.25" cy="434" fill="#ADD1B2" rx="11" ry="11" style="stroke: #A80036; stroke-width: 1.0;"/><path d="M1310.0156,429.875 Q1310.1719,429.6563 1310.3594,429.5469 Q1310.5469,429.4375 1310.7656,429.4375 Q1311.1406,429.4375 1311.375,429.6953 Q1311.6094,429.9531 1311.6094,430.5625 L1311.6094,432.0156 Q1311.6094,432.625 1311.375,432.8906 Q1311.1406,433.1563 1310.7656,433.1563 Q1310.4219,433.1563 1310.2188,432.9531 Q1310.0156,432.7656 1309.9063,432.25 Q1309.8594,431.8906 1309.6719,431.7031 Q1309.3438,431.3281 1308.7344,431.1094 Q1308.125,430.8906 1307.5,430.8906 Q1306.7344,430.8906 1306.1016,431.2188 Q1305.4688,431.5469 1304.9766,432.2969 Q1304.4844,433.0469 1304.4844,434.0781 L1304.4844,435.1719 Q1304.4844,436.4063 1305.375,437.2266 Q1306.2656,438.0469 1307.8594,438.0469 Q1308.7969,438.0469 1309.4531,437.7969 Q1309.8438,437.6406 1310.2656,437.2031 Q1310.5313,436.9375 1310.6797,436.8594 Q1310.8281,436.7813 1311.0313,436.7813 Q1311.3594,436.7813 1311.6172,437.0391 Q1311.875,437.2969 1311.875,437.6406 Q1311.875,437.9844 1311.5313,438.3906 Q1311.0313,438.9688 1310.2344,439.2969 Q1309.1563,439.75 1307.8594,439.75 Q1306.3438,439.75 1305.1406,439.125 Q1304.1563,438.625 1303.4688,437.5547 Q1302.7813,436.4844 1302.7813,435.2031 L1302.7813,434.0469 Q1302.7813,432.7188 1303.3984,431.5703 Q1304.0156,430.4219 1305.1094,429.8047 Q1306.2031,429.1875 1307.4375,429.1875 Q1308.1719,429.1875 1308.8203,429.3516 Q1309.4688,429.5156 1310.0156,429.875 Z "/><text fill="#000000" font-family="sans-serif" font-size="12" lengthAdjust="spacingAndGlyphs" textLength="101" x="1327.75" y="438.9102">StudentViewModel</text><line style="stroke: #A80036; stroke-width: 1.5;" x1="1241.5" x2="1482.5" y1="450" y2="450"/><rect fill="none" height="6" style="stroke: #C82930; stroke-width: 1.0;" width="6" x="1248.5" y="459.418"/><text fill="#000000" font-family="sans-serif" font-size="11" lengthAdjust="spacingAndGlyphs" textLength="176" x="1260.5" y="465.4189">childViewModel : StudentViewModel</text><rect fill="none" height="6" style="stroke: #C82930; stroke-width: 1.0;" width="6" x="1248.5" y="473.2539"/><text fill="#000000" font-family="sans-serif" font-size="11" lengthAdjust="spacingAndGlyphs" textLength="82" x="1260.5" y="479.2549">firstName : string</text><rect fill="none" height="6" style="stroke: #C82930; stroke-width: 1.0;" width="6" x="1248.5" y="487.0898"/><text fill="#000000" font-family="sans-serif" font-size="11" lengthAdjust="spacingAndGlyphs" textLength="80" x="1260.5" y="493.0908">lastName : string</text><rect fill="none" height="6" style="stroke: #C82930; stroke-width: 1.0;" width="6" x="1248.5" y="500.9258"/><text fill="#000000" font-family="sans-serif" font-size="11" lengthAdjust="spacingAndGlyphs" textLength="80" x="1260.5" y="506.9268">company : string</text><rect fill="none" height="6" style="stroke: #C82930; stroke-width: 1.0;" width="6" x="1248.5" y="514.7617"/><text fill="#000000" font-family="sans-serif" font-size="11" lengthAdjust="spacingAndGlyphs" textLength="78" x="1260.5" y="520.7627">success : string</text><rect fill="none" height="6" style="stroke: #C82930; stroke-width: 1.0;" width="6" x="1248.5" y="528.5977"/><text fill="#000000" font-family="sans-serif" font-size="11" lengthAdjust="spacingAndGlyphs" textLength="124" x="1260.5" y="534.5986">selectedStudent : Student</text><rect fill="none" height="6" style="stroke: #C82930; stroke-width: 1.0;" width="6" x="1248.5" y="542.4336"/><text fill="#000000" font-family="sans-serif" font-size="11" lengthAdjust="spacingAndGlyphs" textLength="216" x="1260.5" y="548.4346">students : MyObservableCollection&lt;Student&gt;</text><ellipse cx="1251.5" cy="559.2695" fill="none" rx="3" ry="3" style="stroke: #038048; stroke-width: 1.0;"/><text fill="#000000" font-family="sans-serif" font-size="11" lengthAdjust="spacingAndGlyphs" textLength="217" x="1260.5" y="562.2705">Students : MyObservableCollection&lt;Student&gt;</text><ellipse cx="1251.5" cy="573.1055" fill="none" rx="3" ry="3" style="stroke: #038048; stroke-width: 1.0;"/><text fill="#000000" font-family="sans-serif" font-size="11" lengthAdjust="spacingAndGlyphs" textLength="125" x="1260.5" y="576.1064">SelectedStudent : Student</text><ellipse cx="1251.5" cy="586.9414" fill="none" rx="3" ry="3" style="stroke: #038048; stroke-width: 1.0;"/><text fill="#000000" font-family="sans-serif" font-size="11" lengthAdjust="spacingAndGlyphs" textLength="63" x="1260.5" y="589.9424">Name : string</text><ellipse cx="1251.5" cy="600.7773" fill="none" rx="3" ry="3" style="stroke: #038048; stroke-width: 1.0;"/><text fill="#000000" font-family="sans-serif" font-size="11" lengthAdjust="spacingAndGlyphs" textLength="73" x="1260.5" y="603.7783">Sucess : string</text><ellipse cx="1251.5" cy="614.6133" fill="none" rx="3" ry="3" style="stroke: #038048; stroke-width: 1.0;"/><text fill="#000000" font-family="sans-serif" font-size="11" lengthAdjust="spacingAndGlyphs" textLength="84" x="1260.5" y="617.6143">FirstName : string</text><ellipse cx="1251.5" cy="628.4492" fill="none" rx="3" ry="3" style="stroke: #038048; stroke-width: 1.0;"/><text fill="#000000" font-family="sans-serif" font-size="11" lengthAdjust="spacingAndGlyphs" textLength="84" x="1260.5" y="631.4502">LastName : string</text><ellipse cx="1251.5" cy="642.2852" fill="none" rx="3" ry="3" style="stroke: #038048; stroke-width: 1.0;"/><text fill="#000000" font-family="sans-serif" font-size="11" lengthAdjust="spacingAndGlyphs" textLength="81" x="1260.5" y="645.2861">Company : string</text><ellipse cx="1251.5" cy="656.1211" fill="none" rx="3" ry="3" style="stroke: #038048; stroke-width: 1.0;"/><text fill="#000000" font-family="sans-serif" font-size="11" lengthAdjust="spacingAndGlyphs" textLength="203" x="1260.5" y="659.1221">CreateStudentCommand : ActionCommand</text><ellipse cx="1251.5" cy="669.957" fill="none" rx="3" ry="3" style="stroke: #038048; stroke-width: 1.0;"/><text fill="#000000" font-family="sans-serif" font-size="11" lengthAdjust="spacingAndGlyphs" textLength="191" x="1260.5" y="672.958">AddStudentCommand : ActionCommand</text><ellipse cx="1251.5" cy="683.793" fill="none" rx="3" ry="3" style="stroke: #038048; stroke-width: 1.0;"/><text fill="#000000" font-family="sans-serif" font-size="11" lengthAdjust="spacingAndGlyphs" textLength="196" x="1260.5" y="686.7939">SaveStudentCommand : ActionCommand</text><ellipse cx="1251.5" cy="697.6289" fill="none" rx="3" ry="3" style="stroke: #038048; stroke-width: 1.0;"/><text fill="#000000" font-family="sans-serif" font-size="11" lengthAdjust="spacingAndGlyphs" textLength="201" x="1260.5" y="700.6299">DeleteStudentCommand : ActionCommand</text><line style="stroke: #A80036; stroke-width: 1.5;" x1="1241.5" x2="1482.5" y1="707.0469" y2="707.0469"/><rect fill="#F24D5C" height="6" style="stroke: #C82930; stroke-width: 1.0;" width="6" x="1248.5" y="716.4648"/><text fill="#000000" font-family="sans-serif" font-size="11" lengthAdjust="spacingAndGlyphs" textLength="106" x="1260.5" y="722.4658">CreateStudent() : void</text><rect fill="#F24D5C" height="6" style="stroke: #C82930; stroke-width: 1.0;" width="6" x="1248.5" y="730.3008"/><text fill="#000000" font-family="sans-serif" font-size="11" lengthAdjust="spacingAndGlyphs" textLength="91" x="1260.5" y="736.3018">EditStudent() : void</text><rect fill="#F24D5C" height="6" style="stroke: #C82930; stroke-width: 1.0;" width="6" x="1248.5" y="744.1367"/><text fill="#000000" font-family="sans-serif" font-size="11" lengthAdjust="spacingAndGlyphs" textLength="187" x="1260.5" y="750.1377">AddStudent(string, string, string) : void</text><rect fill="#F24D5C" height="6" style="stroke: #C82930; stroke-width: 1.0;" width="6" x="1248.5" y="757.9727"/><text fill="#000000" font-family="sans-serif" font-size="11" lengthAdjust="spacingAndGlyphs" textLength="136" x="1260.5" y="763.9736">SaveStudent(Student) : void</text><rect fill="#F24D5C" height="6" style="stroke: #C82930; stroke-width: 1.0;" width="6" x="1248.5" y="771.8086"/><text fill="#000000" font-family="sans-serif" font-size="11" lengthAdjust="spacingAndGlyphs" textLength="141" x="1260.5" y="777.8096">DeleteStudent(Student) : void</text><rect fill="#FEFECE" filter="url(#f1)" height="338.5547" style="stroke: #A80036; stroke-width: 1.5;" width="249" x="956.5" y="431.5"/><ellipse cx="1024.75" cy="447.5" fill="#ADD1B2" rx="11" ry="11" style="stroke: #A80036; stroke-width: 1.0;"/><path d="M1027.5156,443.375 Q1027.6719,443.1563 1027.8594,443.0469 Q1028.0469,442.9375 1028.2656,442.9375 Q1028.6406,442.9375 1028.875,443.1953 Q1029.1094,443.4531 1029.1094,444.0625 L1029.1094,445.5156 Q1029.1094,446.125 1028.875,446.3906 Q1028.6406,446.6563 1028.2656,446.6563 Q1027.9219,446.6563 1027.7188,446.4531 Q1027.5156,446.2656 1027.4063,445.75 Q1027.3594,445.3906 1027.1719,445.2031 Q1026.8438,444.8281 1026.2344,444.6094 Q1025.625,444.3906 1025,444.3906 Q1024.2344,444.3906 1023.6016,444.7188 Q1022.9688,445.0469 1022.4766,445.7969 Q1021.9844,446.5469 1021.9844,447.5781 L1021.9844,448.6719 Q1021.9844,449.9063 1022.875,450.7266 Q1023.7656,451.5469 1025.3594,451.5469 Q1026.2969,451.5469 1026.9531,451.2969 Q1027.3438,451.1406 1027.7656,450.7031 Q1028.0313,450.4375 1028.1797,450.3594 Q1028.3281,450.2813 1028.5313,450.2813 Q1028.8594,450.2813 1029.1172,450.5391 Q1029.375,450.7969 1029.375,451.1406 Q1029.375,451.4844 1029.0313,451.8906 Q1028.5313,452.4688 1027.7344,452.7969 Q1026.6563,453.25 1025.3594,453.25 Q1023.8438,453.25 1022.6406,452.625 Q1021.6563,452.125 1020.9688,451.0547 Q1020.2813,449.9844 1020.2813,448.7031 L1020.2813,447.5469 Q1020.2813,446.2188 1020.8984,445.0703 Q1021.5156,443.9219 1022.6094,443.3047 Q1023.7031,442.6875 1024.9375,442.6875 Q1025.6719,442.6875 1026.3203,442.8516 Q1026.9688,443.0156 1027.5156,443.375 Z "/><text fill="#000000" font-family="sans-serif" font-size="12" lengthAdjust="spacingAndGlyphs" textLength="104" x="1045.25" y="452.4102">TeacherViewModel</text><line style="stroke: #A80036; stroke-width: 1.5;" x1="957.5" x2="1204.5" y1="463.5" y2="463.5"/><rect fill="none" height="6" style="stroke: #C82930; stroke-width: 1.0;" width="6" x="964.5" y="472.918"/><text fill="#000000" font-family="sans-serif" font-size="11" lengthAdjust="spacingAndGlyphs" textLength="179" x="976.5" y="478.9189">childViewModel : TeacherViewModel</text><rect fill="none" height="6" style="stroke: #C82930; stroke-width: 1.0;" width="6" x="964.5" y="486.7539"/><text fill="#000000" font-family="sans-serif" font-size="11" lengthAdjust="spacingAndGlyphs" textLength="82" x="976.5" y="492.7549">firstName : string</text><rect fill="none" height="6" style="stroke: #C82930; stroke-width: 1.0;" width="6" x="964.5" y="500.5898"/><text fill="#000000" font-family="sans-serif" font-size="11" lengthAdjust="spacingAndGlyphs" textLength="80" x="976.5" y="506.5908">lastName : string</text><rect fill="none" height="6" style="stroke: #C82930; stroke-width: 1.0;" width="6" x="964.5" y="514.4258"/><text fill="#000000" font-family="sans-serif" font-size="11" lengthAdjust="spacingAndGlyphs" textLength="78" x="976.5" y="520.4268">success : string</text><rect fill="none" height="6" style="stroke: #C82930; stroke-width: 1.0;" width="6" x="964.5" y="528.2617"/><text fill="#000000" font-family="sans-serif" font-size="11" lengthAdjust="spacingAndGlyphs" textLength="220" x="976.5" y="534.2627">teachers : MyObservableCollection&lt;Teacher&gt;</text><rect fill="none" height="6" style="stroke: #C82930; stroke-width: 1.0;" width="6" x="964.5" y="542.0977"/><text fill="#000000" font-family="sans-serif" font-size="11" lengthAdjust="spacingAndGlyphs" textLength="130" x="976.5" y="548.0986">selectedTeacher : Teacher</text><ellipse cx="967.5" cy="558.9336" fill="none" rx="3" ry="3" style="stroke: #038048; stroke-width: 1.0;"/><text fill="#000000" font-family="sans-serif" font-size="11" lengthAdjust="spacingAndGlyphs" textLength="223" x="976.5" y="561.9346">Teachers : MyObservableCollection&lt;Teacher&gt;</text><ellipse cx="967.5" cy="572.7695" fill="none" rx="3" ry="3" style="stroke: #038048; stroke-width: 1.0;"/><text fill="#000000" font-family="sans-serif" font-size="11" lengthAdjust="spacingAndGlyphs" textLength="131" x="976.5" y="575.7705">SelectedTeacher : Teacher</text><ellipse cx="967.5" cy="586.6055" fill="none" rx="3" ry="3" style="stroke: #038048; stroke-width: 1.0;"/><text fill="#000000" font-family="sans-serif" font-size="11" lengthAdjust="spacingAndGlyphs" textLength="63" x="976.5" y="589.6064">Name : string</text><ellipse cx="967.5" cy="600.4414" fill="none" rx="3" ry="3" style="stroke: #038048; stroke-width: 1.0;"/><text fill="#000000" font-family="sans-serif" font-size="11" lengthAdjust="spacingAndGlyphs" textLength="79" x="976.5" y="603.4424">Success : string</text><ellipse cx="967.5" cy="614.2773" fill="none" rx="3" ry="3" style="stroke: #038048; stroke-width: 1.0;"/><text fill="#000000" font-family="sans-serif" font-size="11" lengthAdjust="spacingAndGlyphs" textLength="84" x="976.5" y="617.2783">FirstName : string</text><ellipse cx="967.5" cy="628.1133" fill="none" rx="3" ry="3" style="stroke: #038048; stroke-width: 1.0;"/><text fill="#000000" font-family="sans-serif" font-size="11" lengthAdjust="spacingAndGlyphs" textLength="84" x="976.5" y="631.1143">LastName : string</text><ellipse cx="967.5" cy="641.9492" fill="none" rx="3" ry="3" style="stroke: #038048; stroke-width: 1.0;"/><text fill="#000000" font-family="sans-serif" font-size="11" lengthAdjust="spacingAndGlyphs" textLength="206" x="976.5" y="644.9502">CreateTeacherCommand : ActionCommand</text><ellipse cx="967.5" cy="655.7852" fill="none" rx="3" ry="3" style="stroke: #038048; stroke-width: 1.0;"/><text fill="#000000" font-family="sans-serif" font-size="11" lengthAdjust="spacingAndGlyphs" textLength="194" x="976.5" y="658.7861">AddTeacherCommand : ActionCommand</text><ellipse cx="967.5" cy="669.6211" fill="none" rx="3" ry="3" style="stroke: #038048; stroke-width: 1.0;"/><text fill="#000000" font-family="sans-serif" font-size="11" lengthAdjust="spacingAndGlyphs" textLength="199" x="976.5" y="672.6221">SaveTeacherCommand : ActionCommand</text><ellipse cx="967.5" cy="683.457" fill="none" rx="3" ry="3" style="stroke: #038048; stroke-width: 1.0;"/><text fill="#000000" font-family="sans-serif" font-size="11" lengthAdjust="spacingAndGlyphs" textLength="204" x="976.5" y="686.458">DeleteTeacherCommand : ActionCommand</text><line style="stroke: #A80036; stroke-width: 1.5;" x1="957.5" x2="1204.5" y1="692.875" y2="692.875"/><rect fill="#F24D5C" height="6" style="stroke: #C82930; stroke-width: 1.0;" width="6" x="964.5" y="702.293"/><text fill="#000000" font-family="sans-serif" font-size="11" lengthAdjust="spacingAndGlyphs" textLength="109" x="976.5" y="708.2939">CreateTeacher() : void</text><rect fill="#F24D5C" height="6" style="stroke: #C82930; stroke-width: 1.0;" width="6" x="964.5" y="716.1289"/><text fill="#000000" font-family="sans-serif" font-size="11" lengthAdjust="spacingAndGlyphs" textLength="94" x="976.5" y="722.1299">EditTeacher() : void</text><rect fill="#F24D5C" height="6" style="stroke: #C82930; stroke-width: 1.0;" width="6" x="964.5" y="729.9648"/><text fill="#000000" font-family="sans-serif" font-size="11" lengthAdjust="spacingAndGlyphs" textLength="190" x="976.5" y="735.9658">AddTeacher(string, string, string) : void</text><rect fill="#F24D5C" height="6" style="stroke: #C82930; stroke-width: 1.0;" width="6" x="964.5" y="743.8008"/><text fill="#000000" font-family="sans-serif" font-size="11" lengthAdjust="spacingAndGlyphs" textLength="142" x="976.5" y="749.8018">SaveTeacher(Teacher) : void</text><rect fill="#F24D5C" height="6" style="stroke: #C82930; stroke-width: 1.0;" width="6" x="964.5" y="757.6367"/><text fill="#000000" font-family="sans-serif" font-size="11" lengthAdjust="spacingAndGlyphs" textLength="147" x="976.5" y="763.6377">DeleteTeacher(Teacher) : void</text><rect fill="#FEFECE" filter="url(#f1)" height="144.8516" style="stroke: #A80036; stroke-width: 1.5;" width="234" x="1679" y="528.5"/><ellipse cx="1732.25" cy="544.5" fill="#ADD1B2" rx="11" ry="11" style="stroke: #A80036; stroke-width: 1.0;"/><path d="M1735.0156,540.375 Q1735.1719,540.1563 1735.3594,540.0469 Q1735.5469,539.9375 1735.7656,539.9375 Q1736.1406,539.9375 1736.375,540.1953 Q1736.6094,540.4531 1736.6094,541.0625 L1736.6094,542.5156 Q1736.6094,543.125 1736.375,543.3906 Q1736.1406,543.6563 1735.7656,543.6563 Q1735.4219,543.6563 1735.2188,543.4531 Q1735.0156,543.2656 1734.9063,542.75 Q1734.8594,542.3906 1734.6719,542.2031 Q1734.3438,541.8281 1733.7344,541.6094 Q1733.125,541.3906 1732.5,541.3906 Q1731.7344,541.3906 1731.1016,541.7188 Q1730.4688,542.0469 1729.9766,542.7969 Q1729.4844,543.5469 1729.4844,544.5781 L1729.4844,545.6719 Q1729.4844,546.9063 1730.375,547.7266 Q1731.2656,548.5469 1732.8594,548.5469 Q1733.7969,548.5469 1734.4531,548.2969 Q1734.8438,548.1406 1735.2656,547.7031 Q1735.5313,547.4375 1735.6797,547.3594 Q1735.8281,547.2813 1736.0313,547.2813 Q1736.3594,547.2813 1736.6172,547.5391 Q1736.875,547.7969 1736.875,548.1406 Q1736.875,548.4844 1736.5313,548.8906 Q1736.0313,549.4688 1735.2344,549.7969 Q1734.1563,550.25 1732.8594,550.25 Q1731.3438,550.25 1730.1406,549.625 Q1729.1563,549.125 1728.4688,548.0547 Q1727.7813,546.9844 1727.7813,545.7031 L1727.7813,544.5469 Q1727.7813,543.2188 1728.3984,542.0703 Q1729.0156,540.9219 1730.1094,540.3047 Q1731.2031,539.6875 1732.4375,539.6875 Q1733.1719,539.6875 1733.8203,539.8516 Q1734.4688,540.0156 1735.0156,540.375 Z "/><text fill="#000000" font-family="sans-serif" font-size="12" lengthAdjust="spacingAndGlyphs" textLength="119" x="1752.75" y="549.4102">ApplicationViewModel</text><line style="stroke: #A80036; stroke-width: 1.5;" x1="1680" x2="1912" y1="560.5" y2="560.5"/><rect fill="none" height="6" style="stroke: #C82930; stroke-width: 1.0;" width="6" x="1687" y="569.918"/><text fill="#000000" font-family="sans-serif" font-size="11" lengthAdjust="spacingAndGlyphs" textLength="165" x="1699" y="575.9189">changePageCommand : ICommand</text><rect fill="none" height="6" style="stroke: #C82930; stroke-width: 1.0;" width="6" x="1687" y="583.7539"/><text fill="#000000" font-family="sans-serif" font-size="11" lengthAdjust="spacingAndGlyphs" textLength="202" x="1699" y="589.7549">currentPageViewModel : IPageViewModel</text><rect fill="none" height="6" style="stroke: #C82930; stroke-width: 1.0;" width="6" x="1687" y="597.5898"/><text fill="#000000" font-family="sans-serif" font-size="11" lengthAdjust="spacingAndGlyphs" textLength="208" x="1699" y="603.5908">pageViewModels : List&lt;IPageViewModels&gt;</text><ellipse cx="1690" cy="614.4258" fill="none" rx="3" ry="3" style="stroke: #038048; stroke-width: 1.0;"/><text fill="#000000" font-family="sans-serif" font-size="11" lengthAdjust="spacingAndGlyphs" textLength="166" x="1699" y="617.4268">ChangePageCommand : ICommand</text><ellipse cx="1690" cy="628.2617" fill="none" rx="3" ry="3" style="stroke: #038048; stroke-width: 1.0;"/><text fill="#000000" font-family="sans-serif" font-size="11" lengthAdjust="spacingAndGlyphs" textLength="202" x="1699" y="631.2627">PageViewModels : List&lt;IPageViewModel&gt;</text><ellipse cx="1690" cy="642.0977" fill="none" rx="3" ry="3" style="stroke: #038048; stroke-width: 1.0;"/><text fill="#000000" font-family="sans-serif" font-size="11" lengthAdjust="spacingAndGlyphs" textLength="203" x="1699" y="645.0986">CurrentPageViewModel : IPageViewModel</text><line style="stroke: #A80036; stroke-width: 1.5;" x1="1680" x2="1912" y1="651.5156" y2="651.5156"/><rect fill="#F24D5C" height="6" style="stroke: #C82930; stroke-width: 1.0;" width="6" x="1687" y="660.9336"/><text fill="#000000" font-family="sans-serif" font-size="11" lengthAdjust="spacingAndGlyphs" textLength="208" x="1699" y="666.9346">ChangeViewModel(IPageViewModel) : void</text><rect fill="#FEFECE" filter="url(#f1)" height="61.8359" style="stroke: #A80036; stroke-width: 1.5;" width="125" x="1518.5" y="570"/><ellipse cx="1533.5" cy="586" fill="#ADD1B2" rx="11" ry="11" style="stroke: #A80036; stroke-width: 1.0;"/><path d="M1536.2656,581.875 Q1536.4219,581.6563 1536.6094,581.5469 Q1536.7969,581.4375 1537.0156,581.4375 Q1537.3906,581.4375 1537.625,581.6953 Q1537.8594,581.9531 1537.8594,582.5625 L1537.8594,584.0156 Q1537.8594,584.625 1537.625,584.8906 Q1537.3906,585.1563 1537.0156,585.1563 Q1536.6719,585.1563 1536.4688,584.9531 Q1536.2656,584.7656 1536.1563,584.25 Q1536.1094,583.8906 1535.9219,583.7031 Q1535.5938,583.3281 1534.9844,583.1094 Q1534.375,582.8906 1533.75,582.8906 Q1532.9844,582.8906 1532.3516,583.2188 Q1531.7188,583.5469 1531.2266,584.2969 Q1530.7344,585.0469 1530.7344,586.0781 L1530.7344,587.1719 Q1530.7344,588.4063 1531.625,589.2266 Q1532.5156,590.0469 1534.1094,590.0469 Q1535.0469,590.0469 1535.7031,589.7969 Q1536.0938,589.6406 1536.5156,589.2031 Q1536.7813,588.9375 1536.9297,588.8594 Q1537.0781,588.7813 1537.2813,588.7813 Q1537.6094,588.7813 1537.8672,589.0391 Q1538.125,589.2969 1538.125,589.6406 Q1538.125,589.9844 1537.7813,590.3906 Q1537.2813,590.9688 1536.4844,591.2969 Q1535.4063,591.75 1534.1094,591.75 Q1532.5938,591.75 1531.3906,591.125 Q1530.4063,590.625 1529.7188,589.5547 Q1529.0313,588.4844 1529.0313,587.2031 L1529.0313,586.0469 Q1529.0313,584.7188 1529.6484,583.5703 Q1530.2656,582.4219 1531.3594,581.8047 Q1532.4531,581.1875 1533.6875,581.1875 Q1534.4219,581.1875 1535.0703,581.3516 Q1535.7188,581.5156 1536.2656,581.875 Z "/><text fill="#000000" font-family="sans-serif" font-size="12" lengthAdjust="spacingAndGlyphs" textLength="93" x="1547.5" y="590.9102">HomeViewModel</text><line style="stroke: #A80036; stroke-width: 1.5;" x1="1519.5" x2="1642.5" y1="602" y2="602"/><ellipse cx="1529.5" cy="614.418" fill="none" rx="3" ry="3" style="stroke: #038048; stroke-width: 1.0;"/><text fill="#000000" font-family="sans-serif" font-size="11" lengthAdjust="spacingAndGlyphs" textLength="63" x="1538.5" y="617.4189">Name : string</text><line style="stroke: #A80036; stroke-width: 1.5;" x1="1519.5" x2="1642.5" y1="623.8359" y2="623.8359"/><rect fill="#FEFECE" filter="url(#f1)" height="48" style="stroke: #A80036; stroke-width: 1.5;" width="95" x="1196.5" y="8"/><ellipse cx="1211.5" cy="24" fill="#B4A7E5" rx="11" ry="11" style="stroke: #A80036; stroke-width: 1.0;"/><path d="M1212.4531,20.6406 L1212.4531,27.2969 L1214.1719,27.2969 Q1214.7813,27.2969 1215.0469,27.5313 Q1215.3125,27.7656 1215.3125,28.1563 Q1215.3125,28.5313 1215.0469,28.7656 Q1214.7813,29 1214.1719,29 L1209.0313,29 Q1208.4219,29 1208.1563,28.7656 Q1207.8906,28.5313 1207.8906,28.1406 Q1207.8906,27.7656 1208.1563,27.5313 Q1208.4219,27.2969 1209.0313,27.2969 L1210.75,27.2969 L1210.75,20.6406 L1209.0313,20.6406 Q1208.4219,20.6406 1208.1563,20.4063 Q1207.8906,20.1719 1207.8906,19.7813 Q1207.8906,19.4063 1208.1563,19.1719 Q1208.4219,18.9375 1209.0313,18.9375 L1214.1719,18.9375 Q1214.7813,18.9375 1215.0469,19.1719 Q1215.3125,19.4063 1215.3125,19.7813 Q1215.3125,20.1719 1215.0469,20.4063 Q1214.7813,20.6406 1214.1719,20.6406 L1212.4531,20.6406 Z "/><text fill="#000000" font-family="sans-serif" font-size="12" font-style="italic" lengthAdjust="spacingAndGlyphs" textLength="63" x="1225.5" y="28.9102">ICommand</text><line style="stroke: #A80036; stroke-width: 1.5;" x1="1197.5" x2="1290.5" y1="40" y2="40"/><line style="stroke: #A80036; stroke-width: 1.5;" x1="1197.5" x2="1290.5" y1="48" y2="48"/><rect fill="#FEFECE" filter="url(#f1)" height="48" style="stroke: #A80036; stroke-width: 1.5;" width="110" x="1526" y="8"/><ellipse cx="1541" cy="24" fill="#B4A7E5" rx="11" ry="11" style="stroke: #A80036; stroke-width: 1.0;"/><path d="M1541.9531,20.6406 L1541.9531,27.2969 L1543.6719,27.2969 Q1544.2813,27.2969 1544.5469,27.5313 Q1544.8125,27.7656 1544.8125,28.1563 Q1544.8125,28.5313 1544.5469,28.7656 Q1544.2813,29 1543.6719,29 L1538.5313,29 Q1537.9219,29 1537.6563,28.7656 Q1537.3906,28.5313 1537.3906,28.1406 Q1537.3906,27.7656 1537.6563,27.5313 Q1537.9219,27.2969 1538.5313,27.2969 L1540.25,27.2969 L1540.25,20.6406 L1538.5313,20.6406 Q1537.9219,20.6406 1537.6563,20.4063 Q1537.3906,20.1719 1537.3906,19.7813 Q1537.3906,19.4063 1537.6563,19.1719 Q1537.9219,18.9375 1538.5313,18.9375 L1543.6719,18.9375 Q1544.2813,18.9375 1544.5469,19.1719 Q1544.8125,19.4063 1544.8125,19.7813 Q1544.8125,20.1719 1544.5469,20.4063 Q1544.2813,20.6406 1543.6719,20.6406 L1541.9531,20.6406 Z "/><text fill="#000000" font-family="sans-serif" font-size="12" font-style="italic" lengthAdjust="spacingAndGlyphs" textLength="78" x="1555" y="28.9102">IDataErrorInfo</text><line style="stroke: #A80036; stroke-width: 1.5;" x1="1527" x2="1635" y1="40" y2="40"/><line style="stroke: #A80036; stroke-width: 1.5;" x1="1527" x2="1635" y1="48" y2="48"/><rect fill="#FEFECE" filter="url(#f1)" height="48" style="stroke: #A80036; stroke-width: 1.5;" width="164" x="1673" y="8"/><ellipse cx="1688" cy="24" fill="#B4A7E5" rx="11" ry="11" style="stroke: #A80036; stroke-width: 1.0;"/><path d="M1688.9531,20.6406 L1688.9531,27.2969 L1690.6719,27.2969 Q1691.2813,27.2969 1691.5469,27.5313 Q1691.8125,27.7656 1691.8125,28.1563 Q1691.8125,28.5313 1691.5469,28.7656 Q1691.2813,29 1690.6719,29 L1685.5313,29 Q1684.9219,29 1684.6563,28.7656 Q1684.3906,28.5313 1684.3906,28.1406 Q1684.3906,27.7656 1684.6563,27.5313 Q1684.9219,27.2969 1685.5313,27.2969 L1687.25,27.2969 L1687.25,20.6406 L1685.5313,20.6406 Q1684.9219,20.6406 1684.6563,20.4063 Q1684.3906,20.1719 1684.3906,19.7813 Q1684.3906,19.4063 1684.6563,19.1719 Q1684.9219,18.9375 1685.5313,18.9375 L1690.6719,18.9375 Q1691.2813,18.9375 1691.5469,19.1719 Q1691.8125,19.4063 1691.8125,19.7813 Q1691.8125,20.1719 1691.5469,20.4063 Q1691.2813,20.6406 1690.6719,20.6406 L1688.9531,20.6406 Z "/><text fill="#000000" font-family="sans-serif" font-size="12" font-style="italic" lengthAdjust="spacingAndGlyphs" textLength="132" x="1702" y="28.9102">INotifyPropertyChanged</text><line style="stroke: #A80036; stroke-width: 1.5;" x1="1674" x2="1836" y1="40" y2="40"/><line style="stroke: #A80036; stroke-width: 1.5;" x1="1674" x2="1836" y1="48" y2="48"/><rect fill="#FEFECE" filter="url(#f1)" height="48" style="stroke: #A80036; stroke-width: 1.5;" width="99" x="211.5" y="577"/><ellipse cx="226.5" cy="593" fill="#B4A7E5" rx="11" ry="11" style="stroke: #A80036; stroke-width: 1.0;"/><path d="M227.4531,589.6406 L227.4531,596.2969 L229.1719,596.2969 Q229.7813,596.2969 230.0469,596.5313 Q230.3125,596.7656 230.3125,597.1563 Q230.3125,597.5313 230.0469,597.7656 Q229.7813,598 229.1719,598 L224.0313,598 Q223.4219,598 223.1563,597.7656 Q222.8906,597.5313 222.8906,597.1406 Q222.8906,596.7656 223.1563,596.5313 Q223.4219,596.2969 224.0313,596.2969 L225.75,596.2969 L225.75,589.6406 L224.0313,589.6406 Q223.4219,589.6406 223.1563,589.4063 Q222.8906,589.1719 222.8906,588.7813 Q222.8906,588.4063 223.1563,588.1719 Q223.4219,587.9375 224.0313,587.9375 L229.1719,587.9375 Q229.7813,587.9375 230.0469,588.1719 Q230.3125,588.4063 230.3125,588.7813 Q230.3125,589.1719 230.0469,589.4063 Q229.7813,589.6406 229.1719,589.6406 L227.4531,589.6406 Z "/><text fill="#000000" font-family="sans-serif" font-size="12" font-style="italic" lengthAdjust="spacingAndGlyphs" textLength="67" x="240.5" y="597.9102">IDisposable</text><line style="stroke: #A80036; stroke-width: 1.5;" x1="212.5" x2="309.5" y1="609" y2="609"/><line style="stroke: #A80036; stroke-width: 1.5;" x1="212.5" x2="309.5" y1="617" y2="617"/><rect fill="#FEFECE" filter="url(#f1)" height="48" style="stroke: #A80036; stroke-width: 1.5;" width="150" x="1872" y="8"/><ellipse cx="1887" cy="24" fill="#ADD1B2" rx="11" ry="11" style="stroke: #A80036; stroke-width: 1.0;"/><path d="M1889.7656,19.875 Q1889.9219,19.6563 1890.1094,19.5469 Q1890.2969,19.4375 1890.5156,19.4375 Q1890.8906,19.4375 1891.125,19.6953 Q1891.3594,19.9531 1891.3594,20.5625 L1891.3594,22.0156 Q1891.3594,22.625 1891.125,22.8906 Q1890.8906,23.1563 1890.5156,23.1563 Q1890.1719,23.1563 1889.9688,22.9531 Q1889.7656,22.7656 1889.6563,22.25 Q1889.6094,21.8906 1889.4219,21.7031 Q1889.0938,21.3281 1888.4844,21.1094 Q1887.875,20.8906 1887.25,20.8906 Q1886.4844,20.8906 1885.8516,21.2188 Q1885.2188,21.5469 1884.7266,22.2969 Q1884.2344,23.0469 1884.2344,24.0781 L1884.2344,25.1719 Q1884.2344,26.4063 1885.125,27.2266 Q1886.0156,28.0469 1887.6094,28.0469 Q1888.5469,28.0469 1889.2031,27.7969 Q1889.5938,27.6406 1890.0156,27.2031 Q1890.2813,26.9375 1890.4297,26.8594 Q1890.5781,26.7813 1890.7813,26.7813 Q1891.1094,26.7813 1891.3672,27.0391 Q1891.625,27.2969 1891.625,27.6406 Q1891.625,27.9844 1891.2813,28.3906 Q1890.7813,28.9688 1889.9844,29.2969 Q1888.9063,29.75 1887.6094,29.75 Q1886.0938,29.75 1884.8906,29.125 Q1883.9063,28.625 1883.2188,27.5547 Q1882.5313,26.4844 1882.5313,25.2031 L1882.5313,24.0469 Q1882.5313,22.7188 1883.1484,21.5703 Q1883.7656,20.4219 1884.8594,19.8047 Q1885.9531,19.1875 1887.1875,19.1875 Q1887.9219,19.1875 1888.5703,19.3516 Q1889.2188,19.5156 1889.7656,19.875 Z "/><text fill="#000000" font-family="sans-serif" font-size="12" lengthAdjust="spacingAndGlyphs" textLength="118" x="1901" y="28.9102">ObservableCollection</text><line style="stroke: #A80036; stroke-width: 1.5;" x1="1873" x2="2021" y1="40" y2="40"/><line style="stroke: #A80036; stroke-width: 1.5;" x1="1873" x2="2021" y1="48" y2="48"/><rect fill="#FEFECE" filter="url(#f1)" height="48" style="stroke: #A80036; stroke-width: 1.5;" width="89" x="509.5" y="577"/><ellipse cx="524.5" cy="593" fill="#ADD1B2" rx="11" ry="11" style="stroke: #A80036; stroke-width: 1.0;"/><path d="M527.2656,588.875 Q527.4219,588.6563 527.6094,588.5469 Q527.7969,588.4375 528.0156,588.4375 Q528.3906,588.4375 528.625,588.6953 Q528.8594,588.9531 528.8594,589.5625 L528.8594,591.0156 Q528.8594,591.625 528.625,591.8906 Q528.3906,592.1563 528.0156,592.1563 Q527.6719,592.1563 527.4688,591.9531 Q527.2656,591.7656 527.1563,591.25 Q527.1094,590.8906 526.9219,590.7031 Q526.5938,590.3281 525.9844,590.1094 Q525.375,589.8906 524.75,589.8906 Q523.9844,589.8906 523.3516,590.2188 Q522.7188,590.5469 522.2266,591.2969 Q521.7344,592.0469 521.7344,593.0781 L521.7344,594.1719 Q521.7344,595.4063 522.625,596.2266 Q523.5156,597.0469 525.1094,597.0469 Q526.0469,597.0469 526.7031,596.7969 Q527.0938,596.6406 527.5156,596.2031 Q527.7813,595.9375 527.9297,595.8594 Q528.0781,595.7813 528.2813,595.7813 Q528.6094,595.7813 528.8672,596.0391 Q529.125,596.2969 529.125,596.6406 Q529.125,596.9844 528.7813,597.3906 Q528.2813,597.9688 527.4844,598.2969 Q526.4063,598.75 525.1094,598.75 Q523.5938,598.75 522.3906,598.125 Q521.4063,597.625 520.7188,596.5547 Q520.0313,595.4844 520.0313,594.2031 L520.0313,593.0469 Q520.0313,591.7188 520.6484,590.5703 Q521.2656,589.4219 522.3594,588.8047 Q523.4531,588.1875 524.6875,588.1875 Q525.4219,588.1875 526.0703,588.3516 Q526.7188,588.5156 527.2656,588.875 Z "/><text fill="#000000" font-family="sans-serif" font-size="12" lengthAdjust="spacingAndGlyphs" textLength="57" x="538.5" y="597.9102">DbContext</text><line style="stroke: #A80036; stroke-width: 1.5;" x1="510.5" x2="597.5" y1="609" y2="609"/><line style="stroke: #A80036; stroke-width: 1.5;" x1="510.5" x2="597.5" y1="617" y2="617"/><path d="M921,799.95 C921,833.932 921,869.985 921,906.127 " fill="none" style="stroke: #A80036; stroke-width: 1.0;"/><path d="M940,362 C945.648,327.51 956.08,288.52 963.272,263.63 " fill="none" style="stroke: #A80036; stroke-width: 1.0;"/><path d="M536.284,1300.686 C518.857,1363.101 486.862,1449.313 433,1508 C336.479,1613.167 264.911,1574.687 149,1658 C140.594,1664.042 132.173,1671.014 124.207,1678.15 " fill="none" style="stroke: #A80036; stroke-width: 1.0;"/><path d="M554,1300.551 C554,1403.576 554,1581.748 554,1671.483 " fill="none" style="stroke: #A80036; stroke-width: 1.0;"/><path d="M528.776,1300.551 C495.694,1403.576 438.481,1581.748 409.666,1671.483 " fill="none" style="stroke: #A80036; stroke-width: 1.0;"/><path d="M605.537,1300.551 C669.861,1398.591 778.832,1564.682 839.962,1657.855 " fill="none" style="stroke: #A80036; stroke-width: 1.0;"/><path d="M529.298,1300.71 C508.588,1360.374 475.575,1442.918 433,1508 C408.113,1546.044 321.428,1633.313 268.449,1685.317 " fill="none" style="stroke: #A80036; stroke-width: 1.0;"/><path d="M577.978,1300.551 C610.23,1406.207 666.607,1590.898 693.251,1678.182 " fill="none" style="stroke: #A80036; stroke-width: 1.0;"/><path d="M634.965,1300.551 C741.155,1403.576 924.801,1581.748 1017.29,1671.483 " fill="none" style="stroke: #A80036; stroke-width: 1.0;"/><path d="M437.802,1221 C430.562,1221 423.323,1221 416.084,1221 " fill="none" style="stroke: #A80036; stroke-width: 1.0;"/><polygon fill="#A80036" points="450.832,1221,444.832,1217,438.832,1221,444.832,1225,450.832,1221" style="stroke: #A80036; stroke-width: 1.0;"/><path d="M1550.02,284.94 C1534.98,308 1516.79,336.29 1501,362 C1489.92,380.04 1478.52,398.96 1467.23,417.91 " fill="none" style="stroke: #A80036; stroke-width: 1.0;"/><polygon fill="none" points="1544.25,280.98,1561.06,268.08,1555.96,288.65,1544.25,280.98" style="stroke: #A80036; stroke-width: 1.0;"/><path d="M1581,288.35 C1581,364.76 1581,507.69 1581,569.85 " fill="none" style="stroke: #A80036; stroke-width: 1.0;"/><polygon fill="none" points="1574,288.24,1581,268.24,1588,288.24,1574,288.24" style="stroke: #A80036; stroke-width: 1.0;"/><path d="M1612.12,284.85 C1627.2,307.89 1645.37,336.19 1661,362 C1694.4,417.16 1730.34,480.75 1756.73,528.31 " fill="none" style="stroke: #A80036; stroke-width: 1.0;"/><polygon fill="none" points="1606.19,288.57,1601.05,268.02,1617.89,280.88,1606.19,288.57" style="stroke: #A80036; stroke-width: 1.0;"/><path d="M1489.26,275.17 C1488.5,275.45 1487.75,275.73 1487,276 C1371.06,318.26 1319.43,284.99 1223,362 C1199.03,381.14 1178.2,405.51 1160.42,431.31 " fill="none" style="stroke: #A80036; stroke-width: 1.0;"/><polygon fill="none" points="1486.88,268.59,1508.07,268.06,1491.84,281.68,1486.88,268.59" style="stroke: #A80036; stroke-width: 1.0;"/><path d="M1264.52,287.72 C1275.23,322.03 1290.19,369.96 1305.18,417.98 " fill="none" style="stroke: #A80036; stroke-width: 1.0;"/><polygon fill="none" points="1257.72,289.42,1258.44,268.24,1271.08,285.25,1257.72,289.42" style="stroke: #A80036; stroke-width: 1.0;"/><path d="M1226.49,286.51 C1209.05,324.09 1183.79,378.51 1159.2,431.49 " fill="none" style="stroke: #A80036; stroke-width: 1.0;"/><polygon fill="none" points="1220.2,283.44,1234.97,268.24,1232.9,289.33,1220.2,283.44" style="stroke: #A80036; stroke-width: 1.0;"/><path d="M1329.49,276.71 C1402.03,311.72 1497.82,358.37 1501,362 C1554.25,422.85 1572.33,520.48 1578.26,569.64 " fill="none" style="stroke: #A80036; stroke-width: 1.0;"/><polygon fill="none" points="1326.13,282.86,1311.16,267.86,1332.21,270.25,1326.13,282.86" style="stroke: #A80036; stroke-width: 1.0;"/><path d="M1467.98,266.86 C1541.56,302.34 1657.13,358.35 1661,362 C1710.29,408.4 1746.53,476.89 1768.99,528.5 " fill="none" style="stroke: #A80036; stroke-width: 1.0;"/><polygon fill="#A80036" points="1456.1,261.14,1459.7696,267.3476,1466.9111,266.3478,1463.2415,260.1402,1456.1,261.14" style="stroke: #A80036; stroke-width: 1.0;"/><path d="M1403.4,274.23 C1399.02,308.67 1392.09,363.19 1385.15,417.84 " fill="none" style="stroke: #A80036; stroke-width: 1.0;"/><polygon fill="#A80036" points="1405.05,261.2,1400.3241,266.6466,1403.534,273.1039,1408.26,267.6573,1405.05,261.2" style="stroke: #A80036; stroke-width: 1.0;"/><path d="M1350.92,267.4 C1311.66,289.61 1260.1,322.9 1223,362 C1203.3,382.77 1185.08,406.74 1168.72,431.3 " fill="none" style="stroke: #A80036; stroke-width: 1.0;"/><polygon fill="#A80036" points="1362.42,261.01,1355.2323,260.4295,1351.932,266.8411,1359.1197,267.4215,1362.42,261.01" style="stroke: #A80036; stroke-width: 1.0;"/><path d="M1122.52,269.31 C1153,292.61 1193.39,326.43 1223,362 C1237.47,379.38 1251.33,398.45 1264.31,417.99 " fill="none" style="stroke: #A80036; stroke-width: 1.0;"/><polygon fill="#A80036" points="1111.78,261.21,1114.1695,268.0137,1121.3689,268.4248,1118.9794,261.6211,1111.78,261.21" style="stroke: #A80036; stroke-width: 1.0;"/><path d="M1079.2,274.28 C1079.41,311.54 1079.74,372.29 1080.07,431.29 " fill="none" style="stroke: #A80036; stroke-width: 1.0;"/><polygon fill="#A80036" points="1079.13,261.2,1075.163,267.2219,1079.1959,273.1998,1083.1629,267.1779,1079.13,261.2" style="stroke: #A80036; stroke-width: 1.0;"/><path d="M1945.29,76.42 C1943.75,115.36 1941.54,171.49 1940.19,205.75 " fill="none" style="stroke: #A80036; stroke-width: 1.0;"/><polygon fill="none" points="1938.3,76,1946.08,56.29,1952.29,76.55,1938.3,76" style="stroke: #A80036; stroke-width: 1.0;"/><path d="M1755.43,76.36 C1755.84,118.18 1756.45,179.87 1756.77,212.98 " fill="none" style="stroke: #A80036; stroke-width: 1.0;"/><polygon fill="none" points="1748.43,76.35,1755.23,56.29,1762.43,76.22,1748.43,76.35" style="stroke: #A80036; stroke-width: 1.0;"/><path d="M1581,76.42 C1581,115.36 1581,171.49 1581,205.75 " fill="none" style="stroke: #A80036; stroke-width: 1.0;"/><polygon fill="none" points="1574,76.29,1581,56.29,1588,76.29,1574,76.29" style="stroke: #A80036; stroke-width: 1.0;"/><path d="M1275.59,72.11 C1309.35,113.89 1361.73,178.73 1389.41,212.98 " fill="none" style="stroke: #A80036; stroke-width: 1.0;"/><polygon fill="none" points="1269.94,76.24,1262.81,56.29,1280.83,67.45,1269.94,76.24" style="stroke: #A80036; stroke-width: 1.0;"/><path d="M1212.44,71.83 C1178.48,113.6 1125.61,178.65 1097.71,212.98 " fill="none" style="stroke: #A80036; stroke-width: 1.0;"/><polygon fill="none" points="1207.03,67.39,1225.07,56.29,1217.89,76.22,1207.03,67.39" style="stroke: #A80036; stroke-width: 1.0;"/><path d="M261,645.23 C261,706 261,821.81 261,933.643 " fill="none" style="stroke: #A80036; stroke-width: 1.0;"/><polygon fill="none" points="254,645.1,261,625.1,268,645.1,254,645.1" style="stroke: #A80036; stroke-width: 1.0;"/><path d="M554,645.41 C554,748.59 554,1009.714 554,1141.442 " fill="none" style="stroke: #A80036; stroke-width: 1.0;"/><polygon fill="none" points="547,645.1,554,625.1,561,645.1,547,645.1" style="stroke: #A80036; stroke-width: 1.0;"/></g></svg>